<mxfile host="" modified="2020-06-02T10:15:50.971Z" agent="5.0 (Windows NT 10.0; Win64; x64) AppleWebKit/537.36 (KHTML, like Gecko) Code/1.45.1 Chrome/78.0.3904.130 Electron/7.2.4 Safari/537.36" etag="4UuEZ3AubEMRTAEJV38d" version="13.1.3" pages="3">
    <diagram id="2P9iGeaWxBfXnPcOJ5Lm" name="Page-1">
        <mxGraphModel dx="1723" dy="1162" grid="1" gridSize="10" guides="1" tooltips="1" connect="1" arrows="1" fold="1" page="1" pageScale="1" pageWidth="827" pageHeight="1169" math="0" shadow="0">
            <root>
                <mxCell id="0"/>
                <mxCell id="1" parent="0"/>
                <mxCell id="n-Szu6wr4hjMIO969oJX-6" value="" style="group;fillColor=#66FF66;strokeColor=#000000;strokeWidth=3;fontSize=18;labelBackgroundColor=none;" parent="1" vertex="1" connectable="0">
                    <mxGeometry x="300" y="120" width="230" height="30" as="geometry"/>
                </mxCell>
                <mxCell id="n-Szu6wr4hjMIO969oJX-1" value="" style="rounded=0;whiteSpace=wrap;html=1;fillColor=#66FF66;strokeColor=#000000;strokeWidth=3;fontSize=18;labelBackgroundColor=none;" parent="n-Szu6wr4hjMIO969oJX-6" vertex="1">
                    <mxGeometry width="230" height="30" as="geometry"/>
                </mxCell>
                <mxCell id="n-Szu6wr4hjMIO969oJX-2" value="25" style="rounded=0;whiteSpace=wrap;html=1;fillColor=#66FF66;strokeColor=#000000;strokeWidth=3;fontSize=18;labelBackgroundColor=none;" parent="n-Szu6wr4hjMIO969oJX-6" vertex="1">
                    <mxGeometry width="57.5" height="30" as="geometry"/>
                </mxCell>
                <mxCell id="n-Szu6wr4hjMIO969oJX-3" value="50" style="rounded=0;whiteSpace=wrap;html=1;fillColor=#66FF66;strokeColor=#000000;strokeWidth=3;fontSize=18;labelBackgroundColor=none;" parent="n-Szu6wr4hjMIO969oJX-6" vertex="1">
                    <mxGeometry x="57.5" width="57.5" height="30" as="geometry"/>
                </mxCell>
                <mxCell id="n-Szu6wr4hjMIO969oJX-4" value="75" style="rounded=0;whiteSpace=wrap;html=1;fillColor=#66FF66;strokeColor=#000000;strokeWidth=3;fontSize=18;labelBackgroundColor=none;" parent="n-Szu6wr4hjMIO969oJX-6" vertex="1">
                    <mxGeometry x="115" width="57.5" height="30" as="geometry"/>
                </mxCell>
                <mxCell id="n-Szu6wr4hjMIO969oJX-5" value="100" style="rounded=0;whiteSpace=wrap;html=1;fillColor=#66FF66;strokeColor=#000000;strokeWidth=3;fontSize=18;labelBackgroundColor=none;" parent="n-Szu6wr4hjMIO969oJX-6" vertex="1">
                    <mxGeometry x="172.5" width="57.5" height="30" as="geometry"/>
                </mxCell>
                <mxCell id="n-Szu6wr4hjMIO969oJX-111" style="edgeStyle=orthogonalEdgeStyle;curved=1;rounded=0;orthogonalLoop=1;jettySize=auto;html=1;entryX=1;entryY=0;entryDx=0;entryDy=0;exitX=0.25;exitY=1;exitDx=0;exitDy=0;fontSize=18;labelBackgroundColor=none;" parent="1" source="n-Szu6wr4hjMIO969oJX-15" target="n-Szu6wr4hjMIO969oJX-149" edge="1">
                    <mxGeometry relative="1" as="geometry">
                        <Array as="points">
                            <mxPoint x="253" y="300"/>
                            <mxPoint x="190" y="300"/>
                        </Array>
                        <mxPoint x="180" y="320" as="targetPoint"/>
                    </mxGeometry>
                </mxCell>
                <mxCell id="n-Szu6wr4hjMIO969oJX-112" style="edgeStyle=orthogonalEdgeStyle;curved=1;rounded=0;orthogonalLoop=1;jettySize=auto;html=1;entryX=1;entryY=0;entryDx=0;entryDy=0;exitX=0.25;exitY=1;exitDx=0;exitDy=0;fontSize=18;labelBackgroundColor=none;" parent="1" source="n-Szu6wr4hjMIO969oJX-16" edge="1">
                    <mxGeometry relative="1" as="geometry">
                        <mxPoint x="310" y="320" as="targetPoint"/>
                        <Array as="points">
                            <mxPoint x="310" y="250"/>
                        </Array>
                    </mxGeometry>
                </mxCell>
                <mxCell id="n-Szu6wr4hjMIO969oJX-113" style="edgeStyle=orthogonalEdgeStyle;curved=1;rounded=0;orthogonalLoop=1;jettySize=auto;html=1;entryX=0;entryY=0;entryDx=0;entryDy=0;exitX=0.75;exitY=1;exitDx=0;exitDy=0;fontSize=18;labelBackgroundColor=none;" parent="1" source="n-Szu6wr4hjMIO969oJX-17" target="n-Szu6wr4hjMIO969oJX-162" edge="1">
                    <mxGeometry relative="1" as="geometry">
                        <Array as="points">
                            <mxPoint x="378" y="310"/>
                            <mxPoint x="470" y="310"/>
                        </Array>
                        <mxPoint x="480" y="320" as="targetPoint"/>
                    </mxGeometry>
                </mxCell>
                <mxCell id="n-Szu6wr4hjMIO969oJX-114" style="edgeStyle=orthogonalEdgeStyle;curved=1;rounded=0;orthogonalLoop=1;jettySize=auto;html=1;entryX=1;entryY=0;entryDx=0;entryDy=0;exitX=0.75;exitY=1;exitDx=0;exitDy=0;fontSize=18;labelBackgroundColor=none;" parent="1" source="n-Szu6wr4hjMIO969oJX-18" target="n-Szu6wr4hjMIO969oJX-167" edge="1">
                    <mxGeometry relative="1" as="geometry">
                        <Array as="points">
                            <mxPoint x="428" y="310"/>
                            <mxPoint x="610" y="310"/>
                        </Array>
                        <mxPoint x="650" y="320" as="targetPoint"/>
                    </mxGeometry>
                </mxCell>
                <mxCell id="n-Szu6wr4hjMIO969oJX-145" value="" style="group;fontSize=18;labelBackgroundColor=none;" parent="1" vertex="1" connectable="0">
                    <mxGeometry x="160" y="320" width="540" height="30" as="geometry"/>
                </mxCell>
                <mxCell id="n-Szu6wr4hjMIO969oJX-146" value="" style="group;opacity=60;fontSize=18;labelBackgroundColor=none;" parent="n-Szu6wr4hjMIO969oJX-145" vertex="1" connectable="0">
                    <mxGeometry x="-30" width="120" height="30" as="geometry"/>
                </mxCell>
                <mxCell id="n-Szu6wr4hjMIO969oJX-147" value="" style="rounded=0;whiteSpace=wrap;html=1;opacity=60;fontSize=18;labelBackgroundColor=none;" parent="n-Szu6wr4hjMIO969oJX-146" vertex="1">
                    <mxGeometry width="120" height="30" as="geometry"/>
                </mxCell>
                <mxCell id="n-Szu6wr4hjMIO969oJX-148" value="26" style="rounded=0;whiteSpace=wrap;html=1;opacity=60;fontSize=18;labelBackgroundColor=none;" parent="n-Szu6wr4hjMIO969oJX-146" vertex="1">
                    <mxGeometry width="30" height="30" as="geometry"/>
                </mxCell>
                <mxCell id="n-Szu6wr4hjMIO969oJX-149" value="27" style="rounded=0;whiteSpace=wrap;html=1;opacity=60;fontSize=18;labelBackgroundColor=none;" parent="n-Szu6wr4hjMIO969oJX-146" vertex="1">
                    <mxGeometry x="30" width="30" height="30" as="geometry"/>
                </mxCell>
                <mxCell id="n-Szu6wr4hjMIO969oJX-150" value="28" style="rounded=0;whiteSpace=wrap;html=1;opacity=60;fontSize=18;labelBackgroundColor=none;" parent="n-Szu6wr4hjMIO969oJX-146" vertex="1">
                    <mxGeometry x="60" width="30" height="30" as="geometry"/>
                </mxCell>
                <mxCell id="n-Szu6wr4hjMIO969oJX-151" value="29" style="rounded=0;whiteSpace=wrap;html=1;opacity=60;fontSize=18;labelBackgroundColor=none;" parent="n-Szu6wr4hjMIO969oJX-146" vertex="1">
                    <mxGeometry x="90" width="30" height="30" as="geometry"/>
                </mxCell>
                <mxCell id="n-Szu6wr4hjMIO969oJX-152" value="" style="group;opacity=60;fontSize=18;labelBackgroundColor=none;" parent="n-Szu6wr4hjMIO969oJX-145" vertex="1" connectable="0">
                    <mxGeometry x="110" width="120" height="30" as="geometry"/>
                </mxCell>
                <mxCell id="n-Szu6wr4hjMIO969oJX-153" value="" style="rounded=0;whiteSpace=wrap;html=1;opacity=60;fontSize=18;labelBackgroundColor=none;" parent="n-Szu6wr4hjMIO969oJX-152" vertex="1">
                    <mxGeometry width="120" height="30" as="geometry"/>
                </mxCell>
                <mxCell id="n-Szu6wr4hjMIO969oJX-154" value="31" style="rounded=0;whiteSpace=wrap;html=1;opacity=60;fontSize=18;labelBackgroundColor=none;" parent="n-Szu6wr4hjMIO969oJX-152" vertex="1">
                    <mxGeometry width="30" height="30" as="geometry"/>
                </mxCell>
                <mxCell id="n-Szu6wr4hjMIO969oJX-155" value="32" style="rounded=0;whiteSpace=wrap;html=1;opacity=60;fontSize=18;labelBackgroundColor=none;" parent="n-Szu6wr4hjMIO969oJX-152" vertex="1">
                    <mxGeometry x="30" width="30" height="30" as="geometry"/>
                </mxCell>
                <mxCell id="n-Szu6wr4hjMIO969oJX-156" value="33" style="rounded=0;whiteSpace=wrap;html=1;opacity=60;fontSize=18;labelBackgroundColor=none;" parent="n-Szu6wr4hjMIO969oJX-152" vertex="1">
                    <mxGeometry x="60" width="30" height="30" as="geometry"/>
                </mxCell>
                <mxCell id="n-Szu6wr4hjMIO969oJX-157" value="34" style="rounded=0;whiteSpace=wrap;html=1;opacity=60;fontSize=18;labelBackgroundColor=none;" parent="n-Szu6wr4hjMIO969oJX-152" vertex="1">
                    <mxGeometry x="90" width="30" height="30" as="geometry"/>
                </mxCell>
                <mxCell id="n-Szu6wr4hjMIO969oJX-158" value="" style="group;fillColor=#66FF66;gradientColor=none;strokeColor=#000000;strokeWidth=3;fontSize=18;labelBackgroundColor=none;" parent="n-Szu6wr4hjMIO969oJX-145" vertex="1" connectable="0">
                    <mxGeometry x="250" width="120" height="30" as="geometry"/>
                </mxCell>
                <mxCell id="n-Szu6wr4hjMIO969oJX-159" value="" style="rounded=0;whiteSpace=wrap;html=1;fillColor=#66FF66;gradientColor=none;strokeColor=#000000;strokeWidth=3;fontSize=18;labelBackgroundColor=none;" parent="n-Szu6wr4hjMIO969oJX-158" vertex="1">
                    <mxGeometry width="120" height="30" as="geometry"/>
                </mxCell>
                <mxCell id="n-Szu6wr4hjMIO969oJX-160" value="36" style="rounded=0;whiteSpace=wrap;html=1;fillColor=#66FF66;gradientColor=none;strokeColor=#000000;strokeWidth=3;fontSize=18;labelBackgroundColor=none;" parent="n-Szu6wr4hjMIO969oJX-158" vertex="1">
                    <mxGeometry width="30" height="30" as="geometry"/>
                </mxCell>
                <mxCell id="n-Szu6wr4hjMIO969oJX-161" value="37" style="rounded=0;whiteSpace=wrap;html=1;fillColor=#66FF66;gradientColor=none;strokeColor=#000000;strokeWidth=3;fontSize=18;labelBackgroundColor=none;" parent="n-Szu6wr4hjMIO969oJX-158" vertex="1">
                    <mxGeometry x="30" width="30" height="30" as="geometry"/>
                </mxCell>
                <mxCell id="n-Szu6wr4hjMIO969oJX-162" value="38" style="rounded=0;whiteSpace=wrap;html=1;fillColor=#66FF66;gradientColor=none;strokeColor=#000000;strokeWidth=3;fontSize=18;labelBackgroundColor=none;" parent="n-Szu6wr4hjMIO969oJX-158" vertex="1">
                    <mxGeometry x="60" width="30" height="30" as="geometry"/>
                </mxCell>
                <mxCell id="n-Szu6wr4hjMIO969oJX-163" value="39" style="rounded=0;whiteSpace=wrap;html=1;fillColor=#66FF66;gradientColor=none;strokeColor=#000000;strokeWidth=3;fontSize=18;labelBackgroundColor=none;" parent="n-Szu6wr4hjMIO969oJX-158" vertex="1">
                    <mxGeometry x="90" width="30" height="30" as="geometry"/>
                </mxCell>
                <mxCell id="n-Szu6wr4hjMIO969oJX-164" value="" style="group;fillColor=#66FF66;gradientColor=none;strokeColor=#000000;strokeWidth=3;fontSize=18;labelBackgroundColor=none;" parent="n-Szu6wr4hjMIO969oJX-145" vertex="1" connectable="0">
                    <mxGeometry x="390" width="120" height="30" as="geometry"/>
                </mxCell>
                <mxCell id="n-Szu6wr4hjMIO969oJX-165" value="" style="rounded=0;whiteSpace=wrap;html=1;fillColor=#66FF66;gradientColor=none;strokeColor=#000000;strokeWidth=3;fontSize=18;labelBackgroundColor=none;" parent="n-Szu6wr4hjMIO969oJX-164" vertex="1">
                    <mxGeometry width="120" height="30" as="geometry"/>
                </mxCell>
                <mxCell id="n-Szu6wr4hjMIO969oJX-166" value="41" style="rounded=0;whiteSpace=wrap;html=1;fillColor=#66FF66;gradientColor=none;strokeColor=#000000;strokeWidth=3;fontSize=18;labelBackgroundColor=none;" parent="n-Szu6wr4hjMIO969oJX-164" vertex="1">
                    <mxGeometry width="30" height="30" as="geometry"/>
                </mxCell>
                <mxCell id="n-Szu6wr4hjMIO969oJX-167" value="42" style="rounded=0;whiteSpace=wrap;html=1;fillColor=#66FF66;gradientColor=none;strokeColor=#000000;strokeWidth=3;fontSize=18;labelBackgroundColor=none;" parent="n-Szu6wr4hjMIO969oJX-164" vertex="1">
                    <mxGeometry x="30" width="30" height="30" as="geometry"/>
                </mxCell>
                <mxCell id="n-Szu6wr4hjMIO969oJX-168" value="43" style="rounded=0;whiteSpace=wrap;html=1;fillColor=#66FF66;gradientColor=none;strokeColor=#000000;strokeWidth=3;fontSize=18;labelBackgroundColor=none;" parent="n-Szu6wr4hjMIO969oJX-164" vertex="1">
                    <mxGeometry x="60" width="30" height="30" as="geometry"/>
                </mxCell>
                <mxCell id="n-Szu6wr4hjMIO969oJX-169" value="44" style="rounded=0;whiteSpace=wrap;html=1;fillColor=#66FF66;gradientColor=none;strokeColor=#000000;strokeWidth=3;fontSize=18;labelBackgroundColor=none;" parent="n-Szu6wr4hjMIO969oJX-164" vertex="1">
                    <mxGeometry x="90" width="30" height="30" as="geometry"/>
                </mxCell>
                <mxCell id="n-Szu6wr4hjMIO969oJX-194" style="edgeStyle=orthogonalEdgeStyle;curved=1;rounded=0;orthogonalLoop=1;jettySize=auto;html=1;entryX=0.5;entryY=0;entryDx=0;entryDy=0;opacity=60;fontSize=18;labelBackgroundColor=none;" parent="1" source="n-Szu6wr4hjMIO969oJX-148" target="n-Szu6wr4hjMIO969oJX-144" edge="1">
                    <mxGeometry relative="1" as="geometry"/>
                </mxCell>
                <mxCell id="n-Szu6wr4hjMIO969oJX-195" style="edgeStyle=orthogonalEdgeStyle;curved=1;rounded=0;orthogonalLoop=1;jettySize=auto;html=1;opacity=60;fontSize=18;labelBackgroundColor=none;" parent="1" source="n-Szu6wr4hjMIO969oJX-149" target="n-Szu6wr4hjMIO969oJX-174" edge="1">
                    <mxGeometry relative="1" as="geometry"/>
                </mxCell>
                <mxCell id="n-Szu6wr4hjMIO969oJX-196" style="edgeStyle=orthogonalEdgeStyle;curved=1;rounded=0;orthogonalLoop=1;jettySize=auto;html=1;entryX=0.5;entryY=0;entryDx=0;entryDy=0;opacity=60;fontSize=18;labelBackgroundColor=none;" parent="1" source="n-Szu6wr4hjMIO969oJX-150" target="n-Szu6wr4hjMIO969oJX-175" edge="1">
                    <mxGeometry relative="1" as="geometry"/>
                </mxCell>
                <mxCell id="n-Szu6wr4hjMIO969oJX-197" style="edgeStyle=orthogonalEdgeStyle;curved=1;rounded=0;orthogonalLoop=1;jettySize=auto;html=1;entryX=0.5;entryY=0;entryDx=0;entryDy=0;opacity=60;fontSize=18;labelBackgroundColor=none;" parent="1" source="n-Szu6wr4hjMIO969oJX-151" target="n-Szu6wr4hjMIO969oJX-176" edge="1">
                    <mxGeometry relative="1" as="geometry"/>
                </mxCell>
                <mxCell id="n-Szu6wr4hjMIO969oJX-198" style="edgeStyle=orthogonalEdgeStyle;curved=1;rounded=0;orthogonalLoop=1;jettySize=auto;html=1;opacity=60;fontSize=18;labelBackgroundColor=none;" parent="1" source="n-Szu6wr4hjMIO969oJX-154" target="n-Szu6wr4hjMIO969oJX-179" edge="1">
                    <mxGeometry relative="1" as="geometry"/>
                </mxCell>
                <mxCell id="n-Szu6wr4hjMIO969oJX-199" style="edgeStyle=orthogonalEdgeStyle;curved=1;rounded=0;orthogonalLoop=1;jettySize=auto;html=1;entryX=0.5;entryY=0;entryDx=0;entryDy=0;opacity=60;fontSize=18;labelBackgroundColor=none;" parent="1" source="n-Szu6wr4hjMIO969oJX-155" target="n-Szu6wr4hjMIO969oJX-180" edge="1">
                    <mxGeometry relative="1" as="geometry"/>
                </mxCell>
                <mxCell id="n-Szu6wr4hjMIO969oJX-200" style="edgeStyle=orthogonalEdgeStyle;curved=1;rounded=0;orthogonalLoop=1;jettySize=auto;html=1;entryX=0.5;entryY=0;entryDx=0;entryDy=0;opacity=60;fontSize=18;labelBackgroundColor=none;" parent="1" source="n-Szu6wr4hjMIO969oJX-156" target="n-Szu6wr4hjMIO969oJX-181" edge="1">
                    <mxGeometry relative="1" as="geometry"/>
                </mxCell>
                <mxCell id="n-Szu6wr4hjMIO969oJX-201" style="edgeStyle=orthogonalEdgeStyle;curved=1;rounded=0;orthogonalLoop=1;jettySize=auto;html=1;entryX=0.5;entryY=0;entryDx=0;entryDy=0;opacity=60;fontSize=18;labelBackgroundColor=none;" parent="1" source="n-Szu6wr4hjMIO969oJX-157" target="n-Szu6wr4hjMIO969oJX-182" edge="1">
                    <mxGeometry relative="1" as="geometry"/>
                </mxCell>
                <mxCell id="n-Szu6wr4hjMIO969oJX-202" style="edgeStyle=orthogonalEdgeStyle;curved=1;rounded=0;orthogonalLoop=1;jettySize=auto;html=1;entryX=0.5;entryY=0;entryDx=0;entryDy=0;fontSize=18;labelBackgroundColor=none;" parent="1" source="n-Szu6wr4hjMIO969oJX-160" target="n-Szu6wr4hjMIO969oJX-184" edge="1">
                    <mxGeometry relative="1" as="geometry"/>
                </mxCell>
                <mxCell id="n-Szu6wr4hjMIO969oJX-203" style="edgeStyle=orthogonalEdgeStyle;curved=1;rounded=0;orthogonalLoop=1;jettySize=auto;html=1;entryX=0.5;entryY=0;entryDx=0;entryDy=0;fontSize=18;labelBackgroundColor=none;" parent="1" source="n-Szu6wr4hjMIO969oJX-161" target="n-Szu6wr4hjMIO969oJX-185" edge="1">
                    <mxGeometry relative="1" as="geometry"/>
                </mxCell>
                <mxCell id="n-Szu6wr4hjMIO969oJX-204" style="edgeStyle=orthogonalEdgeStyle;curved=1;rounded=0;orthogonalLoop=1;jettySize=auto;html=1;entryX=0.5;entryY=0;entryDx=0;entryDy=0;fontSize=18;labelBackgroundColor=none;" parent="1" source="n-Szu6wr4hjMIO969oJX-162" target="n-Szu6wr4hjMIO969oJX-186" edge="1">
                    <mxGeometry relative="1" as="geometry"/>
                </mxCell>
                <mxCell id="n-Szu6wr4hjMIO969oJX-206" style="edgeStyle=orthogonalEdgeStyle;curved=1;rounded=0;orthogonalLoop=1;jettySize=auto;html=1;entryX=0.5;entryY=0;entryDx=0;entryDy=0;fontSize=18;labelBackgroundColor=none;" parent="1" source="n-Szu6wr4hjMIO969oJX-163" target="n-Szu6wr4hjMIO969oJX-187" edge="1">
                    <mxGeometry relative="1" as="geometry"/>
                </mxCell>
                <mxCell id="n-Szu6wr4hjMIO969oJX-207" style="edgeStyle=orthogonalEdgeStyle;curved=1;rounded=0;orthogonalLoop=1;jettySize=auto;html=1;entryX=0.5;entryY=0;entryDx=0;entryDy=0;fontSize=18;labelBackgroundColor=none;" parent="1" source="n-Szu6wr4hjMIO969oJX-166" target="n-Szu6wr4hjMIO969oJX-189" edge="1">
                    <mxGeometry relative="1" as="geometry"/>
                </mxCell>
                <mxCell id="n-Szu6wr4hjMIO969oJX-208" style="edgeStyle=orthogonalEdgeStyle;curved=1;rounded=0;orthogonalLoop=1;jettySize=auto;html=1;fontSize=18;labelBackgroundColor=none;" parent="1" source="n-Szu6wr4hjMIO969oJX-167" target="n-Szu6wr4hjMIO969oJX-190" edge="1">
                    <mxGeometry relative="1" as="geometry"/>
                </mxCell>
                <mxCell id="n-Szu6wr4hjMIO969oJX-209" style="edgeStyle=orthogonalEdgeStyle;curved=1;rounded=0;orthogonalLoop=1;jettySize=auto;html=1;entryX=0.5;entryY=0;entryDx=0;entryDy=0;fontSize=18;labelBackgroundColor=none;" parent="1" source="n-Szu6wr4hjMIO969oJX-168" target="n-Szu6wr4hjMIO969oJX-191" edge="1">
                    <mxGeometry relative="1" as="geometry"/>
                </mxCell>
                <mxCell id="n-Szu6wr4hjMIO969oJX-210" style="edgeStyle=orthogonalEdgeStyle;curved=1;rounded=0;orthogonalLoop=1;jettySize=auto;html=1;entryX=0.5;entryY=0;entryDx=0;entryDy=0;fontSize=18;labelBackgroundColor=none;" parent="1" source="n-Szu6wr4hjMIO969oJX-169" target="n-Szu6wr4hjMIO969oJX-192" edge="1">
                    <mxGeometry relative="1" as="geometry"/>
                </mxCell>
                <mxCell id="n-Szu6wr4hjMIO969oJX-177" value="" style="group;opacity=60;fontSize=18;labelBackgroundColor=none;" parent="1" vertex="1" connectable="0">
                    <mxGeometry x="130" y="370" width="120" height="30" as="geometry"/>
                </mxCell>
                <mxCell id="n-Szu6wr4hjMIO969oJX-144" value="26" style="shape=image;html=1;verticalAlign=top;verticalLabelPosition=bottom;labelBackgroundColor=none;imageAspect=0;aspect=fixed;image=https://cdn0.iconfinder.com/data/icons/blockchain-classic/270/ChainLink-128.png;labelPosition=center;align=center;labelBorderColor=none;imageBorder=none;opacity=60;fontSize=18;" parent="n-Szu6wr4hjMIO969oJX-177" vertex="1">
                    <mxGeometry width="30" height="30" as="geometry"/>
                </mxCell>
                <mxCell id="n-Szu6wr4hjMIO969oJX-174" value="27" style="shape=image;html=1;verticalAlign=top;verticalLabelPosition=bottom;labelBackgroundColor=none;imageAspect=0;aspect=fixed;image=https://cdn0.iconfinder.com/data/icons/blockchain-classic/270/ChainLink-128.png;labelPosition=center;align=center;spacingBottom=7;opacity=60;fontSize=18;" parent="n-Szu6wr4hjMIO969oJX-177" vertex="1">
                    <mxGeometry x="30" width="30" height="30" as="geometry"/>
                </mxCell>
                <mxCell id="n-Szu6wr4hjMIO969oJX-175" value="28" style="shape=image;html=1;verticalAlign=top;verticalLabelPosition=bottom;labelBackgroundColor=none;imageAspect=0;aspect=fixed;image=https://cdn0.iconfinder.com/data/icons/blockchain-classic/270/ChainLink-128.png;labelPosition=center;align=center;opacity=60;fontSize=18;" parent="n-Szu6wr4hjMIO969oJX-177" vertex="1">
                    <mxGeometry x="60" width="30" height="30" as="geometry"/>
                </mxCell>
                <mxCell id="n-Szu6wr4hjMIO969oJX-176" value="29" style="shape=image;html=1;verticalAlign=top;verticalLabelPosition=bottom;labelBackgroundColor=none;imageAspect=0;aspect=fixed;image=https://cdn0.iconfinder.com/data/icons/blockchain-classic/270/ChainLink-128.png;labelPosition=center;align=center;spacingBottom=7;opacity=60;fontSize=18;" parent="n-Szu6wr4hjMIO969oJX-177" vertex="1">
                    <mxGeometry x="90" width="30" height="30" as="geometry"/>
                </mxCell>
                <mxCell id="n-Szu6wr4hjMIO969oJX-178" value="" style="group;opacity=60;fontSize=18;labelBackgroundColor=none;" parent="1" vertex="1" connectable="0">
                    <mxGeometry x="270" y="370" width="120" height="30" as="geometry"/>
                </mxCell>
                <mxCell id="n-Szu6wr4hjMIO969oJX-179" value="31" style="shape=image;html=1;verticalAlign=top;verticalLabelPosition=bottom;labelBackgroundColor=none;imageAspect=0;aspect=fixed;image=https://cdn0.iconfinder.com/data/icons/blockchain-classic/270/ChainLink-128.png;labelPosition=center;align=center;opacity=60;fontSize=18;" parent="n-Szu6wr4hjMIO969oJX-178" vertex="1">
                    <mxGeometry width="30" height="30" as="geometry"/>
                </mxCell>
                <mxCell id="n-Szu6wr4hjMIO969oJX-181" value="33" style="shape=image;html=1;verticalAlign=top;verticalLabelPosition=bottom;labelBackgroundColor=none;imageAspect=0;aspect=fixed;image=https://cdn0.iconfinder.com/data/icons/blockchain-classic/270/ChainLink-128.png;labelPosition=center;align=center;spacingBottom=7;opacity=60;fontSize=18;" parent="n-Szu6wr4hjMIO969oJX-178" vertex="1">
                    <mxGeometry x="60" width="30" height="30" as="geometry"/>
                </mxCell>
                <mxCell id="n-Szu6wr4hjMIO969oJX-182" value="34" style="shape=image;html=1;verticalAlign=top;verticalLabelPosition=bottom;labelBackgroundColor=none;imageAspect=0;aspect=fixed;image=https://cdn0.iconfinder.com/data/icons/blockchain-classic/270/ChainLink-128.png;labelPosition=center;align=center;spacingBottom=7;opacity=60;fontSize=18;" parent="n-Szu6wr4hjMIO969oJX-178" vertex="1">
                    <mxGeometry x="90" width="30" height="30" as="geometry"/>
                </mxCell>
                <mxCell id="n-Szu6wr4hjMIO969oJX-180" value="32" style="shape=image;html=1;verticalAlign=top;verticalLabelPosition=bottom;labelBackgroundColor=none;imageAspect=0;aspect=fixed;image=https://cdn0.iconfinder.com/data/icons/blockchain-classic/270/ChainLink-128.png;labelPosition=center;align=center;spacingBottom=7;opacity=60;fontSize=18;" parent="n-Szu6wr4hjMIO969oJX-178" vertex="1">
                    <mxGeometry x="30" width="30" height="30" as="geometry"/>
                </mxCell>
                <mxCell id="n-Szu6wr4hjMIO969oJX-183" value="" style="group;fontSize=18;labelBackgroundColor=none;" parent="1" vertex="1" connectable="0">
                    <mxGeometry x="410" y="370" width="120" height="30" as="geometry"/>
                </mxCell>
                <mxCell id="n-Szu6wr4hjMIO969oJX-184" value="36" style="shape=image;html=1;verticalAlign=top;verticalLabelPosition=bottom;labelBackgroundColor=none;imageAspect=0;aspect=fixed;image=https://cdn0.iconfinder.com/data/icons/blockchain-classic/270/ChainLink-128.png;labelPosition=center;align=center;opacity=60;fontSize=18;" parent="n-Szu6wr4hjMIO969oJX-183" vertex="1">
                    <mxGeometry width="30" height="30" as="geometry"/>
                </mxCell>
                <mxCell id="n-Szu6wr4hjMIO969oJX-185" value="37" style="shape=image;html=1;verticalAlign=top;verticalLabelPosition=bottom;labelBackgroundColor=none;imageAspect=0;aspect=fixed;image=https://cdn0.iconfinder.com/data/icons/blockchain-classic/270/ChainLink-128.png;labelPosition=center;align=center;spacingBottom=7;opacity=60;fontSize=18;" parent="n-Szu6wr4hjMIO969oJX-183" vertex="1">
                    <mxGeometry x="30" width="30" height="30" as="geometry"/>
                </mxCell>
                <mxCell id="n-Szu6wr4hjMIO969oJX-186" value="38" style="shape=image;html=1;verticalAlign=top;verticalLabelPosition=bottom;labelBackgroundColor=none;imageAspect=0;aspect=fixed;image=https://cdn0.iconfinder.com/data/icons/blockchain-classic/270/ChainLink-128.png;labelPosition=center;align=center;imageBorder=#000000;strokeWidth=2;imageBackground=#66FF66;fontSize=18;" parent="n-Szu6wr4hjMIO969oJX-183" vertex="1">
                    <mxGeometry x="60" width="30" height="30" as="geometry"/>
                </mxCell>
                <mxCell id="n-Szu6wr4hjMIO969oJX-187" value="39" style="shape=image;html=1;verticalAlign=top;verticalLabelPosition=bottom;labelBackgroundColor=none;imageAspect=0;aspect=fixed;image=https://cdn0.iconfinder.com/data/icons/blockchain-classic/270/ChainLink-128.png;labelPosition=center;align=center;spacingBottom=7;imageBorder=#000000;strokeWidth=2;imageBackground=#66FF66;fontSize=18;" parent="n-Szu6wr4hjMIO969oJX-183" vertex="1">
                    <mxGeometry x="90" width="30" height="30" as="geometry"/>
                </mxCell>
                <mxCell id="n-Szu6wr4hjMIO969oJX-188" value="" style="group;fontSize=18;labelBackgroundColor=none;" parent="1" vertex="1" connectable="0">
                    <mxGeometry x="550" y="370" width="120" height="30" as="geometry"/>
                </mxCell>
                <mxCell id="n-Szu6wr4hjMIO969oJX-189" value="41" style="shape=image;html=1;verticalAlign=top;verticalLabelPosition=bottom;labelBackgroundColor=none;imageAspect=0;aspect=fixed;image=https://cdn0.iconfinder.com/data/icons/blockchain-classic/270/ChainLink-128.png;labelPosition=center;align=center;imageBorder=#000000;strokeWidth=2;imageBackground=#66FF66;fontSize=18;" parent="n-Szu6wr4hjMIO969oJX-188" vertex="1">
                    <mxGeometry width="30" height="30" as="geometry"/>
                </mxCell>
                <mxCell id="n-Szu6wr4hjMIO969oJX-190" value="42" style="shape=image;html=1;verticalAlign=top;verticalLabelPosition=bottom;labelBackgroundColor=none;imageAspect=0;aspect=fixed;image=https://cdn0.iconfinder.com/data/icons/blockchain-classic/270/ChainLink-128.png;labelPosition=center;align=center;spacingBottom=7;imageBackground=#66FF66;imageBorder=#000000;strokeWidth=3;fontSize=18;" parent="n-Szu6wr4hjMIO969oJX-188" vertex="1">
                    <mxGeometry x="30" width="30" height="30" as="geometry"/>
                </mxCell>
                <mxCell id="n-Szu6wr4hjMIO969oJX-191" value="43" style="shape=image;html=1;verticalAlign=top;verticalLabelPosition=bottom;labelBackgroundColor=none;imageAspect=0;aspect=fixed;image=https://cdn0.iconfinder.com/data/icons/blockchain-classic/270/ChainLink-128.png;labelPosition=center;align=center;opacity=60;fontSize=18;" parent="n-Szu6wr4hjMIO969oJX-188" vertex="1">
                    <mxGeometry x="60" width="30" height="30" as="geometry"/>
                </mxCell>
                <mxCell id="n-Szu6wr4hjMIO969oJX-192" value="44" style="shape=image;html=1;verticalAlign=top;verticalLabelPosition=bottom;labelBackgroundColor=none;imageAspect=0;aspect=fixed;image=https://cdn0.iconfinder.com/data/icons/blockchain-classic/270/ChainLink-128.png;labelPosition=center;align=center;spacingBottom=7;opacity=60;fontSize=18;" parent="n-Szu6wr4hjMIO969oJX-188" vertex="1">
                    <mxGeometry x="90" width="30" height="30" as="geometry"/>
                </mxCell>
                <mxCell id="A8BWSiHvY98nCif8WAlf-2" value="25" style="shape=image;html=1;verticalAlign=top;verticalLabelPosition=bottom;labelBackgroundColor=none;imageAspect=0;aspect=fixed;image=https://cdn0.iconfinder.com/data/icons/blockchain-classic/270/ChainLink-128.png;labelPosition=center;align=center;labelBorderColor=none;imageBorder=none;spacing=0;spacingBottom=0;spacingTop=-4;opacity=60;fontSize=18;" parent="1" vertex="1">
                    <mxGeometry x="320" y="160" width="30" height="30" as="geometry"/>
                </mxCell>
                <mxCell id="A8BWSiHvY98nCif8WAlf-3" value="50" style="shape=image;html=1;verticalAlign=top;verticalLabelPosition=bottom;labelBackgroundColor=none;imageAspect=0;aspect=fixed;image=https://cdn0.iconfinder.com/data/icons/blockchain-classic/270/ChainLink-128.png;labelPosition=center;align=center;spacingBottom=0;spacing=0;spacingTop=-4;opacity=60;fontSize=18;" parent="1" vertex="1">
                    <mxGeometry x="380" y="160" width="30" height="30" as="geometry"/>
                </mxCell>
                <mxCell id="A8BWSiHvY98nCif8WAlf-4" value="75" style="shape=image;html=1;verticalAlign=top;verticalLabelPosition=bottom;labelBackgroundColor=none;imageAspect=0;aspect=fixed;image=https://cdn0.iconfinder.com/data/icons/blockchain-classic/270/ChainLink-128.png;labelPosition=center;align=center;spacing=0;spacingBottom=0;spacingTop=-4;opacity=60;fontSize=18;" parent="1" vertex="1">
                    <mxGeometry x="422" y="160" width="30" height="30" as="geometry"/>
                </mxCell>
                <mxCell id="A8BWSiHvY98nCif8WAlf-5" value="100" style="shape=image;html=1;verticalAlign=top;verticalLabelPosition=bottom;labelBackgroundColor=none;imageAspect=0;aspect=fixed;image=https://cdn0.iconfinder.com/data/icons/blockchain-classic/270/ChainLink-128.png;labelPosition=center;align=center;spacingBottom=0;spacing=0;spacingTop=-4;opacity=60;fontSize=18;" parent="1" vertex="1">
                    <mxGeometry x="480" y="160" width="30" height="30" as="geometry"/>
                </mxCell>
                <mxCell id="A8BWSiHvY98nCif8WAlf-8" style="edgeStyle=orthogonalEdgeStyle;rounded=0;orthogonalLoop=1;jettySize=auto;html=1;exitX=0.75;exitY=1;exitDx=0;exitDy=0;entryX=0.75;entryY=0;entryDx=0;entryDy=0;fontSize=18;labelBackgroundColor=none;" parent="1" source="n-Szu6wr4hjMIO969oJX-2" target="A8BWSiHvY98nCif8WAlf-2" edge="1">
                    <mxGeometry relative="1" as="geometry"/>
                </mxCell>
                <mxCell id="A8BWSiHvY98nCif8WAlf-10" style="edgeStyle=orthogonalEdgeStyle;rounded=0;orthogonalLoop=1;jettySize=auto;html=1;exitX=0.75;exitY=1;exitDx=0;exitDy=0;entryX=0.75;entryY=0;entryDx=0;entryDy=0;fontSize=18;labelBackgroundColor=none;" parent="1" source="n-Szu6wr4hjMIO969oJX-3" target="A8BWSiHvY98nCif8WAlf-3" edge="1">
                    <mxGeometry relative="1" as="geometry"/>
                </mxCell>
                <mxCell id="A8BWSiHvY98nCif8WAlf-14" style="edgeStyle=orthogonalEdgeStyle;rounded=0;orthogonalLoop=1;jettySize=auto;html=1;exitX=0.25;exitY=1;exitDx=0;exitDy=0;entryX=1;entryY=0;entryDx=0;entryDy=0;curved=1;fontSize=18;labelBackgroundColor=none;" parent="1" source="n-Szu6wr4hjMIO969oJX-2" target="n-Szu6wr4hjMIO969oJX-10" edge="1">
                    <mxGeometry relative="1" as="geometry"/>
                </mxCell>
                <mxCell id="A8BWSiHvY98nCif8WAlf-17" style="rounded=0;orthogonalLoop=1;jettySize=auto;html=1;exitX=0.25;exitY=1;exitDx=0;exitDy=0;entryX=0.25;entryY=0;entryDx=0;entryDy=0;fontSize=18;labelBackgroundColor=none;" parent="1" source="n-Szu6wr4hjMIO969oJX-4" target="A8BWSiHvY98nCif8WAlf-4" edge="1">
                    <mxGeometry relative="1" as="geometry"/>
                </mxCell>
                <mxCell id="A8BWSiHvY98nCif8WAlf-22" style="edgeStyle=orthogonalEdgeStyle;curved=1;rounded=0;orthogonalLoop=1;jettySize=auto;html=1;exitX=0.75;exitY=1;exitDx=0;exitDy=0;entryX=0;entryY=0;entryDx=0;entryDy=0;fontSize=18;labelBackgroundColor=none;" parent="1" source="n-Szu6wr4hjMIO969oJX-5" target="n-Szu6wr4hjMIO969oJX-29" edge="1">
                    <mxGeometry relative="1" as="geometry"/>
                </mxCell>
                <mxCell id="A8BWSiHvY98nCif8WAlf-23" style="edgeStyle=orthogonalEdgeStyle;curved=1;rounded=0;orthogonalLoop=1;jettySize=auto;html=1;exitX=0.25;exitY=1;exitDx=0;exitDy=0;entryX=0.25;entryY=0;entryDx=0;entryDy=0;fontSize=18;labelBackgroundColor=none;" parent="1" source="n-Szu6wr4hjMIO969oJX-5" target="A8BWSiHvY98nCif8WAlf-5" edge="1">
                    <mxGeometry relative="1" as="geometry"/>
                </mxCell>
                <mxCell id="A8BWSiHvY98nCif8WAlf-25" style="edgeStyle=orthogonalEdgeStyle;curved=1;rounded=0;orthogonalLoop=1;jettySize=auto;html=1;exitX=0.25;exitY=1;exitDx=0;exitDy=0;entryX=1;entryY=0;entryDx=0;entryDy=0;fontSize=18;labelBackgroundColor=none;" parent="1" source="n-Szu6wr4hjMIO969oJX-3" target="n-Szu6wr4hjMIO969oJX-16" edge="1">
                    <mxGeometry relative="1" as="geometry">
                        <Array as="points">
                            <mxPoint x="372" y="200"/>
                            <mxPoint x="340" y="200"/>
                        </Array>
                    </mxGeometry>
                </mxCell>
                <mxCell id="A8BWSiHvY98nCif8WAlf-27" value="30" style="shape=image;html=1;verticalAlign=top;verticalLabelPosition=bottom;labelBackgroundColor=none;imageAspect=0;aspect=fixed;image=https://cdn0.iconfinder.com/data/icons/blockchain-classic/270/ChainLink-128.png;labelPosition=center;align=center;labelBorderColor=none;imageBorder=none;spacing=0;spacingBottom=0;spacingTop=-4;opacity=60;fontSize=18;" parent="1" vertex="1">
                    <mxGeometry x="260" y="260" width="30" height="30" as="geometry"/>
                </mxCell>
                <mxCell id="n-Szu6wr4hjMIO969oJX-7" value="" style="group;opacity=60;fontSize=18;labelBackgroundColor=none;" parent="1" vertex="1" connectable="0">
                    <mxGeometry x="110" y="220" width="120" height="30" as="geometry"/>
                </mxCell>
                <mxCell id="n-Szu6wr4hjMIO969oJX-8" value="" style="rounded=0;whiteSpace=wrap;html=1;opacity=60;fontSize=18;labelBackgroundColor=none;" parent="n-Szu6wr4hjMIO969oJX-7" vertex="1">
                    <mxGeometry width="120" height="30" as="geometry"/>
                </mxCell>
                <mxCell id="n-Szu6wr4hjMIO969oJX-9" value="6" style="rounded=0;whiteSpace=wrap;html=1;opacity=60;fontSize=18;labelBackgroundColor=none;" parent="n-Szu6wr4hjMIO969oJX-7" vertex="1">
                    <mxGeometry width="30" height="30" as="geometry"/>
                </mxCell>
                <mxCell id="n-Szu6wr4hjMIO969oJX-10" value="12" style="rounded=0;whiteSpace=wrap;html=1;opacity=60;fontSize=18;labelBackgroundColor=none;" parent="n-Szu6wr4hjMIO969oJX-7" vertex="1">
                    <mxGeometry x="30" width="30" height="30" as="geometry"/>
                </mxCell>
                <mxCell id="n-Szu6wr4hjMIO969oJX-11" value="18" style="rounded=0;whiteSpace=wrap;html=1;opacity=60;fontSize=18;labelBackgroundColor=none;" parent="n-Szu6wr4hjMIO969oJX-7" vertex="1">
                    <mxGeometry x="60" width="30" height="30" as="geometry"/>
                </mxCell>
                <mxCell id="n-Szu6wr4hjMIO969oJX-12" value="25" style="rounded=0;whiteSpace=wrap;html=1;opacity=60;fontSize=18;labelBackgroundColor=none;" parent="n-Szu6wr4hjMIO969oJX-7" vertex="1">
                    <mxGeometry x="90" width="30" height="30" as="geometry"/>
                </mxCell>
                <mxCell id="n-Szu6wr4hjMIO969oJX-13" value="" style="group;strokeColor=#000000;fillColor=#66FF66;strokeWidth=3;fontSize=18;labelBackgroundColor=none;" parent="1" vertex="1" connectable="0">
                    <mxGeometry x="240" y="220" width="200" height="30" as="geometry"/>
                </mxCell>
                <mxCell id="n-Szu6wr4hjMIO969oJX-14" value="" style="rounded=0;whiteSpace=wrap;html=1;strokeColor=#000000;fillColor=#66FF66;strokeWidth=3;fontSize=18;labelBackgroundColor=none;" parent="n-Szu6wr4hjMIO969oJX-13" vertex="1">
                    <mxGeometry width="200" height="30" as="geometry"/>
                </mxCell>
                <mxCell id="n-Szu6wr4hjMIO969oJX-15" value="30" style="rounded=0;whiteSpace=wrap;html=1;strokeColor=#000000;fillColor=#66FF66;strokeWidth=3;fontSize=18;labelBackgroundColor=none;" parent="n-Szu6wr4hjMIO969oJX-13" vertex="1">
                    <mxGeometry width="50" height="30" as="geometry"/>
                </mxCell>
                <mxCell id="n-Szu6wr4hjMIO969oJX-16" value="35" style="rounded=0;whiteSpace=wrap;html=1;strokeColor=#000000;fillColor=#66FF66;strokeWidth=3;fontSize=18;labelBackgroundColor=none;" parent="n-Szu6wr4hjMIO969oJX-13" vertex="1">
                    <mxGeometry x="50" width="50" height="30" as="geometry"/>
                </mxCell>
                <mxCell id="n-Szu6wr4hjMIO969oJX-17" value="40" style="rounded=0;whiteSpace=wrap;html=1;strokeColor=#000000;fillColor=#66FF66;strokeWidth=3;fontSize=18;labelBackgroundColor=none;" parent="n-Szu6wr4hjMIO969oJX-13" vertex="1">
                    <mxGeometry x="100" width="50" height="30" as="geometry"/>
                </mxCell>
                <mxCell id="n-Szu6wr4hjMIO969oJX-18" value="45" style="rounded=0;whiteSpace=wrap;html=1;strokeColor=#000000;fillColor=#66FF66;strokeWidth=3;fontSize=18;labelBackgroundColor=none;" parent="n-Szu6wr4hjMIO969oJX-13" vertex="1">
                    <mxGeometry x="150" width="50" height="30" as="geometry"/>
                </mxCell>
                <mxCell id="n-Szu6wr4hjMIO969oJX-19" value="" style="group;opacity=60;fontSize=18;labelBackgroundColor=none;" parent="1" vertex="1" connectable="0">
                    <mxGeometry x="460" y="220" width="120" height="30" as="geometry"/>
                </mxCell>
                <mxCell id="n-Szu6wr4hjMIO969oJX-20" value="" style="rounded=0;whiteSpace=wrap;html=1;opacity=60;fontSize=18;labelBackgroundColor=none;" parent="n-Szu6wr4hjMIO969oJX-19" vertex="1">
                    <mxGeometry width="120" height="30" as="geometry"/>
                </mxCell>
                <mxCell id="n-Szu6wr4hjMIO969oJX-21" value="56" style="rounded=0;whiteSpace=wrap;html=1;opacity=60;fontSize=18;labelBackgroundColor=none;" parent="n-Szu6wr4hjMIO969oJX-19" vertex="1">
                    <mxGeometry width="30" height="30" as="geometry"/>
                </mxCell>
                <mxCell id="n-Szu6wr4hjMIO969oJX-22" value="62" style="rounded=0;whiteSpace=wrap;html=1;opacity=60;fontSize=18;labelBackgroundColor=none;" parent="n-Szu6wr4hjMIO969oJX-19" vertex="1">
                    <mxGeometry x="30" width="30" height="30" as="geometry"/>
                </mxCell>
                <mxCell id="n-Szu6wr4hjMIO969oJX-23" value="68" style="rounded=0;whiteSpace=wrap;html=1;opacity=60;fontSize=18;labelBackgroundColor=none;" parent="n-Szu6wr4hjMIO969oJX-19" vertex="1">
                    <mxGeometry x="60" width="30" height="30" as="geometry"/>
                </mxCell>
                <mxCell id="n-Szu6wr4hjMIO969oJX-24" value="75" style="rounded=0;whiteSpace=wrap;html=1;opacity=60;fontSize=18;labelBackgroundColor=none;" parent="n-Szu6wr4hjMIO969oJX-19" vertex="1">
                    <mxGeometry x="90" width="30" height="30" as="geometry"/>
                </mxCell>
                <mxCell id="n-Szu6wr4hjMIO969oJX-25" value="" style="group;opacity=60;fontSize=18;labelBackgroundColor=none;" parent="1" vertex="1" connectable="0">
                    <mxGeometry x="600" y="220" width="120" height="30" as="geometry"/>
                </mxCell>
                <mxCell id="n-Szu6wr4hjMIO969oJX-26" value="" style="rounded=0;whiteSpace=wrap;html=1;opacity=60;fontSize=18;labelBackgroundColor=none;" parent="n-Szu6wr4hjMIO969oJX-25" vertex="1">
                    <mxGeometry width="120" height="30" as="geometry"/>
                </mxCell>
                <mxCell id="n-Szu6wr4hjMIO969oJX-27" value="81" style="rounded=0;whiteSpace=wrap;html=1;opacity=60;fontSize=18;labelBackgroundColor=none;" parent="n-Szu6wr4hjMIO969oJX-25" vertex="1">
                    <mxGeometry width="30" height="30" as="geometry"/>
                </mxCell>
                <mxCell id="n-Szu6wr4hjMIO969oJX-28" value="87" style="rounded=0;whiteSpace=wrap;html=1;opacity=60;fontSize=18;labelBackgroundColor=none;" parent="n-Szu6wr4hjMIO969oJX-25" vertex="1">
                    <mxGeometry x="30" width="30" height="30" as="geometry"/>
                </mxCell>
                <mxCell id="n-Szu6wr4hjMIO969oJX-29" value="93" style="rounded=0;whiteSpace=wrap;html=1;opacity=60;fontSize=18;labelBackgroundColor=none;" parent="n-Szu6wr4hjMIO969oJX-25" vertex="1">
                    <mxGeometry x="60" width="30" height="30" as="geometry"/>
                </mxCell>
                <mxCell id="n-Szu6wr4hjMIO969oJX-30" value="100" style="rounded=0;whiteSpace=wrap;html=1;opacity=60;fontSize=18;labelBackgroundColor=none;" parent="n-Szu6wr4hjMIO969oJX-25" vertex="1">
                    <mxGeometry x="90" width="30" height="30" as="geometry"/>
                </mxCell>
                <mxCell id="A8BWSiHvY98nCif8WAlf-28" value="35" style="shape=image;html=1;verticalAlign=top;verticalLabelPosition=bottom;labelBackgroundColor=none;imageAspect=0;aspect=fixed;image=https://cdn0.iconfinder.com/data/icons/blockchain-classic/270/ChainLink-128.png;labelPosition=center;align=center;labelBorderColor=none;imageBorder=none;spacing=0;spacingBottom=0;spacingTop=-4;opacity=60;fontSize=18;" parent="1" vertex="1">
                    <mxGeometry x="310" y="260" width="30" height="30" as="geometry"/>
                </mxCell>
                <mxCell id="A8BWSiHvY98nCif8WAlf-29" value="40" style="shape=image;html=1;verticalAlign=top;verticalLabelPosition=bottom;labelBackgroundColor=none;imageAspect=0;aspect=fixed;image=https://cdn0.iconfinder.com/data/icons/blockchain-classic/270/ChainLink-128.png;labelPosition=center;align=center;labelBorderColor=none;imageBorder=none;spacing=0;spacingBottom=0;spacingTop=-4;opacity=60;fontSize=18;" parent="1" vertex="1">
                    <mxGeometry x="350" y="260" width="30" height="30" as="geometry"/>
                </mxCell>
                <mxCell id="A8BWSiHvY98nCif8WAlf-32" value="45" style="shape=image;html=1;verticalAlign=top;verticalLabelPosition=bottom;labelBackgroundColor=none;imageAspect=0;aspect=fixed;image=https://cdn0.iconfinder.com/data/icons/blockchain-classic/270/ChainLink-128.png;labelPosition=center;align=center;labelBorderColor=none;imageBorder=none;spacing=0;spacingBottom=0;spacingTop=-4;opacity=60;fontSize=18;" parent="1" vertex="1">
                    <mxGeometry x="400" y="260" width="30" height="30" as="geometry"/>
                </mxCell>
                <mxCell id="A8BWSiHvY98nCif8WAlf-33" style="edgeStyle=orthogonalEdgeStyle;curved=1;rounded=0;orthogonalLoop=1;jettySize=auto;html=1;exitX=0.75;exitY=1;exitDx=0;exitDy=0;entryX=0.5;entryY=0;entryDx=0;entryDy=0;strokeColor=#000000;fontSize=18;labelBackgroundColor=none;" parent="1" source="n-Szu6wr4hjMIO969oJX-15" target="A8BWSiHvY98nCif8WAlf-27" edge="1">
                    <mxGeometry relative="1" as="geometry"/>
                </mxCell>
                <mxCell id="A8BWSiHvY98nCif8WAlf-34" style="edgeStyle=orthogonalEdgeStyle;curved=1;rounded=0;orthogonalLoop=1;jettySize=auto;html=1;exitX=0.75;exitY=1;exitDx=0;exitDy=0;entryX=0.5;entryY=0;entryDx=0;entryDy=0;strokeColor=#000000;fontSize=18;labelBackgroundColor=none;" parent="1" source="n-Szu6wr4hjMIO969oJX-16" target="A8BWSiHvY98nCif8WAlf-28" edge="1">
                    <mxGeometry relative="1" as="geometry"/>
                </mxCell>
                <mxCell id="A8BWSiHvY98nCif8WAlf-35" style="edgeStyle=orthogonalEdgeStyle;curved=1;rounded=0;orthogonalLoop=1;jettySize=auto;html=1;exitX=0.75;exitY=1;exitDx=0;exitDy=0;entryX=0.75;entryY=0;entryDx=0;entryDy=0;strokeColor=#000000;fontSize=18;labelBackgroundColor=none;" parent="1" source="n-Szu6wr4hjMIO969oJX-17" target="A8BWSiHvY98nCif8WAlf-29" edge="1">
                    <mxGeometry relative="1" as="geometry"/>
                </mxCell>
                <mxCell id="A8BWSiHvY98nCif8WAlf-37" style="edgeStyle=orthogonalEdgeStyle;curved=1;rounded=0;orthogonalLoop=1;jettySize=auto;html=1;exitX=0.75;exitY=1;exitDx=0;exitDy=0;entryX=0;entryY=0;entryDx=0;entryDy=0;fontSize=18;labelBackgroundColor=none;" parent="1" source="n-Szu6wr4hjMIO969oJX-4" target="n-Szu6wr4hjMIO969oJX-23" edge="1">
                    <mxGeometry relative="1" as="geometry">
                        <Array as="points">
                            <mxPoint x="458" y="210"/>
                            <mxPoint x="520" y="210"/>
                        </Array>
                    </mxGeometry>
                </mxCell>
                <mxCell id="A8BWSiHvY98nCif8WAlf-38" value="" style="group;spacing=0;spacingTop=0;spacingBottom=-4;opacity=60;fontSize=18;labelBackgroundColor=none;" parent="1" vertex="1" connectable="0">
                    <mxGeometry x="110" y="260" width="120" height="30" as="geometry"/>
                </mxCell>
                <mxCell id="A8BWSiHvY98nCif8WAlf-39" value="6" style="shape=image;html=1;verticalAlign=top;verticalLabelPosition=bottom;labelBackgroundColor=none;imageAspect=0;aspect=fixed;image=https://cdn0.iconfinder.com/data/icons/blockchain-classic/270/ChainLink-128.png;labelPosition=center;align=center;labelBorderColor=none;imageBorder=none;spacing=0;spacingBottom=0;spacingTop=-4;imageBackground=#ffffff;opacity=60;fontSize=18;" parent="A8BWSiHvY98nCif8WAlf-38" vertex="1">
                    <mxGeometry width="30" height="30" as="geometry"/>
                </mxCell>
                <mxCell id="A8BWSiHvY98nCif8WAlf-40" value="12" style="shape=image;html=1;verticalAlign=top;verticalLabelPosition=bottom;labelBackgroundColor=none;imageAspect=0;aspect=fixed;image=https://cdn0.iconfinder.com/data/icons/blockchain-classic/270/ChainLink-128.png;labelPosition=center;align=center;spacingBottom=0;spacing=0;spacingTop=-4;opacity=60;fontSize=18;" parent="A8BWSiHvY98nCif8WAlf-38" vertex="1">
                    <mxGeometry x="30" width="30" height="30" as="geometry"/>
                </mxCell>
                <mxCell id="A8BWSiHvY98nCif8WAlf-41" value="18" style="shape=image;html=1;verticalAlign=top;verticalLabelPosition=bottom;labelBackgroundColor=none;imageAspect=0;aspect=fixed;image=https://cdn0.iconfinder.com/data/icons/blockchain-classic/270/ChainLink-128.png;labelPosition=center;align=center;spacing=0;spacingTop=-4;opacity=60;fontSize=18;" parent="A8BWSiHvY98nCif8WAlf-38" vertex="1">
                    <mxGeometry x="60" width="30" height="30" as="geometry"/>
                </mxCell>
                <mxCell id="A8BWSiHvY98nCif8WAlf-42" value="25" style="shape=image;html=1;verticalAlign=top;verticalLabelPosition=bottom;labelBackgroundColor=none;imageAspect=0;aspect=fixed;image=https://cdn0.iconfinder.com/data/icons/blockchain-classic/270/ChainLink-128.png;labelPosition=center;align=center;spacingBottom=0;spacing=0;spacingTop=-4;opacity=60;fontSize=18;" parent="A8BWSiHvY98nCif8WAlf-38" vertex="1">
                    <mxGeometry x="90" width="30" height="30" as="geometry"/>
                </mxCell>
                <mxCell id="A8BWSiHvY98nCif8WAlf-43" style="edgeStyle=orthogonalEdgeStyle;curved=1;rounded=0;orthogonalLoop=1;jettySize=auto;html=1;exitX=0.5;exitY=1;exitDx=0;exitDy=0;entryX=0.5;entryY=0;entryDx=0;entryDy=0;opacity=60;fontSize=18;labelBackgroundColor=none;" parent="1" source="n-Szu6wr4hjMIO969oJX-9" target="A8BWSiHvY98nCif8WAlf-39" edge="1">
                    <mxGeometry relative="1" as="geometry"/>
                </mxCell>
                <mxCell id="A8BWSiHvY98nCif8WAlf-44" style="edgeStyle=orthogonalEdgeStyle;curved=1;rounded=0;orthogonalLoop=1;jettySize=auto;html=1;exitX=0.5;exitY=1;exitDx=0;exitDy=0;entryX=0.5;entryY=0;entryDx=0;entryDy=0;opacity=60;fontSize=18;labelBackgroundColor=none;" parent="1" source="n-Szu6wr4hjMIO969oJX-10" target="A8BWSiHvY98nCif8WAlf-40" edge="1">
                    <mxGeometry relative="1" as="geometry"/>
                </mxCell>
                <mxCell id="A8BWSiHvY98nCif8WAlf-45" style="edgeStyle=orthogonalEdgeStyle;curved=1;rounded=0;orthogonalLoop=1;jettySize=auto;html=1;exitX=0.5;exitY=1;exitDx=0;exitDy=0;entryX=0.5;entryY=0;entryDx=0;entryDy=0;opacity=60;fontSize=18;labelBackgroundColor=none;" parent="1" source="n-Szu6wr4hjMIO969oJX-11" target="A8BWSiHvY98nCif8WAlf-41" edge="1">
                    <mxGeometry relative="1" as="geometry"/>
                </mxCell>
                <mxCell id="A8BWSiHvY98nCif8WAlf-46" style="edgeStyle=orthogonalEdgeStyle;curved=1;rounded=0;orthogonalLoop=1;jettySize=auto;html=1;exitX=0.5;exitY=1;exitDx=0;exitDy=0;entryX=0.5;entryY=0;entryDx=0;entryDy=0;opacity=60;fontSize=18;labelBackgroundColor=none;" parent="1" source="n-Szu6wr4hjMIO969oJX-12" target="A8BWSiHvY98nCif8WAlf-42" edge="1">
                    <mxGeometry relative="1" as="geometry"/>
                </mxCell>
                <mxCell id="A8BWSiHvY98nCif8WAlf-47" value="" style="group;spacing=0;spacingTop=0;spacingBottom=-4;opacity=60;fontSize=18;labelBackgroundColor=none;" parent="1" vertex="1" connectable="0">
                    <mxGeometry x="600" y="260" width="120" height="30" as="geometry"/>
                </mxCell>
                <mxCell id="A8BWSiHvY98nCif8WAlf-48" value="81" style="shape=image;html=1;verticalAlign=top;verticalLabelPosition=bottom;labelBackgroundColor=none;imageAspect=0;aspect=fixed;image=https://cdn0.iconfinder.com/data/icons/blockchain-classic/270/ChainLink-128.png;labelPosition=center;align=center;labelBorderColor=none;imageBorder=none;spacing=0;spacingBottom=0;spacingTop=-4;opacity=60;fontSize=18;" parent="A8BWSiHvY98nCif8WAlf-47" vertex="1">
                    <mxGeometry width="30" height="30" as="geometry"/>
                </mxCell>
                <mxCell id="A8BWSiHvY98nCif8WAlf-49" value="87" style="shape=image;html=1;verticalAlign=top;verticalLabelPosition=bottom;labelBackgroundColor=none;imageAspect=0;aspect=fixed;image=https://cdn0.iconfinder.com/data/icons/blockchain-classic/270/ChainLink-128.png;labelPosition=center;align=center;spacingBottom=0;spacing=0;spacingTop=-4;opacity=60;fontSize=18;" parent="A8BWSiHvY98nCif8WAlf-47" vertex="1">
                    <mxGeometry x="30" width="30" height="30" as="geometry"/>
                </mxCell>
                <mxCell id="A8BWSiHvY98nCif8WAlf-50" value="93" style="shape=image;html=1;verticalAlign=top;verticalLabelPosition=bottom;labelBackgroundColor=none;imageAspect=0;aspect=fixed;image=https://cdn0.iconfinder.com/data/icons/blockchain-classic/270/ChainLink-128.png;labelPosition=center;align=center;spacing=0;spacingTop=-4;opacity=60;fontSize=18;" parent="A8BWSiHvY98nCif8WAlf-47" vertex="1">
                    <mxGeometry x="60" width="30" height="30" as="geometry"/>
                </mxCell>
                <mxCell id="A8BWSiHvY98nCif8WAlf-51" value="100" style="shape=image;html=1;verticalAlign=top;verticalLabelPosition=bottom;labelBackgroundColor=none;imageAspect=0;aspect=fixed;image=https://cdn0.iconfinder.com/data/icons/blockchain-classic/270/ChainLink-128.png;labelPosition=center;align=center;spacingBottom=0;spacing=0;spacingTop=-4;opacity=60;fontSize=18;" parent="A8BWSiHvY98nCif8WAlf-47" vertex="1">
                    <mxGeometry x="90" width="30" height="30" as="geometry"/>
                </mxCell>
                <mxCell id="A8BWSiHvY98nCif8WAlf-52" style="edgeStyle=orthogonalEdgeStyle;curved=1;rounded=0;orthogonalLoop=1;jettySize=auto;html=1;exitX=0.5;exitY=1;exitDx=0;exitDy=0;entryX=0.5;entryY=0;entryDx=0;entryDy=0;opacity=60;fontSize=18;labelBackgroundColor=none;" parent="1" target="A8BWSiHvY98nCif8WAlf-48" edge="1">
                    <mxGeometry relative="1" as="geometry">
                        <mxPoint x="615" y="250" as="sourcePoint"/>
                    </mxGeometry>
                </mxCell>
                <mxCell id="A8BWSiHvY98nCif8WAlf-53" style="edgeStyle=orthogonalEdgeStyle;curved=1;rounded=0;orthogonalLoop=1;jettySize=auto;html=1;exitX=0.5;exitY=1;exitDx=0;exitDy=0;entryX=0.5;entryY=0;entryDx=0;entryDy=0;opacity=60;fontSize=18;labelBackgroundColor=none;" parent="1" target="A8BWSiHvY98nCif8WAlf-49" edge="1">
                    <mxGeometry relative="1" as="geometry">
                        <mxPoint x="645" y="250" as="sourcePoint"/>
                    </mxGeometry>
                </mxCell>
                <mxCell id="A8BWSiHvY98nCif8WAlf-54" style="edgeStyle=orthogonalEdgeStyle;curved=1;rounded=0;orthogonalLoop=1;jettySize=auto;html=1;exitX=0.5;exitY=1;exitDx=0;exitDy=0;entryX=0.5;entryY=0;entryDx=0;entryDy=0;opacity=60;fontSize=18;labelBackgroundColor=none;" parent="1" target="A8BWSiHvY98nCif8WAlf-50" edge="1">
                    <mxGeometry relative="1" as="geometry">
                        <mxPoint x="675" y="250" as="sourcePoint"/>
                    </mxGeometry>
                </mxCell>
                <mxCell id="A8BWSiHvY98nCif8WAlf-55" style="edgeStyle=orthogonalEdgeStyle;curved=1;rounded=0;orthogonalLoop=1;jettySize=auto;html=1;exitX=0.5;exitY=1;exitDx=0;exitDy=0;entryX=0.5;entryY=0;entryDx=0;entryDy=0;opacity=60;fontSize=18;labelBackgroundColor=none;" parent="1" target="A8BWSiHvY98nCif8WAlf-51" edge="1">
                    <mxGeometry relative="1" as="geometry">
                        <mxPoint x="705" y="250" as="sourcePoint"/>
                    </mxGeometry>
                </mxCell>
                <mxCell id="A8BWSiHvY98nCif8WAlf-56" value="" style="group;spacing=0;spacingTop=0;spacingBottom=-4;opacity=60;fontSize=18;labelBackgroundColor=none;" parent="1" vertex="1" connectable="0">
                    <mxGeometry x="460" y="260" width="120" height="30" as="geometry"/>
                </mxCell>
                <mxCell id="A8BWSiHvY98nCif8WAlf-57" value="56" style="shape=image;html=1;verticalAlign=top;verticalLabelPosition=bottom;labelBackgroundColor=none;imageAspect=0;aspect=fixed;image=https://cdn0.iconfinder.com/data/icons/blockchain-classic/270/ChainLink-128.png;labelPosition=center;align=center;labelBorderColor=none;imageBorder=none;spacing=0;spacingBottom=0;spacingTop=-4;opacity=60;fontSize=18;" parent="A8BWSiHvY98nCif8WAlf-56" vertex="1">
                    <mxGeometry width="30" height="30" as="geometry"/>
                </mxCell>
                <mxCell id="A8BWSiHvY98nCif8WAlf-58" value="62" style="shape=image;html=1;verticalAlign=top;verticalLabelPosition=bottom;labelBackgroundColor=none;imageAspect=0;aspect=fixed;image=https://cdn0.iconfinder.com/data/icons/blockchain-classic/270/ChainLink-128.png;labelPosition=center;align=center;spacingBottom=0;spacing=0;spacingTop=-4;opacity=60;fontSize=18;" parent="A8BWSiHvY98nCif8WAlf-56" vertex="1">
                    <mxGeometry x="30" width="30" height="30" as="geometry"/>
                </mxCell>
                <mxCell id="A8BWSiHvY98nCif8WAlf-59" value="68" style="shape=image;html=1;verticalAlign=top;verticalLabelPosition=bottom;labelBackgroundColor=none;imageAspect=0;aspect=fixed;image=https://cdn0.iconfinder.com/data/icons/blockchain-classic/270/ChainLink-128.png;labelPosition=center;align=center;spacing=0;spacingTop=-4;opacity=60;fontSize=18;" parent="A8BWSiHvY98nCif8WAlf-56" vertex="1">
                    <mxGeometry x="60" width="30" height="30" as="geometry"/>
                </mxCell>
                <mxCell id="A8BWSiHvY98nCif8WAlf-60" value="75" style="shape=image;html=1;verticalAlign=top;verticalLabelPosition=bottom;labelBackgroundColor=none;imageAspect=0;aspect=fixed;image=https://cdn0.iconfinder.com/data/icons/blockchain-classic/270/ChainLink-128.png;labelPosition=center;align=center;spacingBottom=0;spacing=0;spacingTop=-4;opacity=60;fontSize=18;" parent="A8BWSiHvY98nCif8WAlf-56" vertex="1">
                    <mxGeometry x="90" width="30" height="30" as="geometry"/>
                </mxCell>
                <mxCell id="A8BWSiHvY98nCif8WAlf-61" style="edgeStyle=orthogonalEdgeStyle;curved=1;rounded=0;orthogonalLoop=1;jettySize=auto;html=1;exitX=0.5;exitY=1;exitDx=0;exitDy=0;entryX=0.5;entryY=0;entryDx=0;entryDy=0;opacity=60;fontSize=18;labelBackgroundColor=none;" parent="1" target="A8BWSiHvY98nCif8WAlf-57" edge="1">
                    <mxGeometry relative="1" as="geometry">
                        <mxPoint x="475" y="250" as="sourcePoint"/>
                    </mxGeometry>
                </mxCell>
                <mxCell id="A8BWSiHvY98nCif8WAlf-62" style="edgeStyle=orthogonalEdgeStyle;curved=1;rounded=0;orthogonalLoop=1;jettySize=auto;html=1;exitX=0.5;exitY=1;exitDx=0;exitDy=0;entryX=0.5;entryY=0;entryDx=0;entryDy=0;opacity=60;fontSize=18;labelBackgroundColor=none;" parent="1" target="A8BWSiHvY98nCif8WAlf-58" edge="1">
                    <mxGeometry relative="1" as="geometry">
                        <mxPoint x="505" y="250" as="sourcePoint"/>
                    </mxGeometry>
                </mxCell>
                <mxCell id="A8BWSiHvY98nCif8WAlf-63" style="edgeStyle=orthogonalEdgeStyle;curved=1;rounded=0;orthogonalLoop=1;jettySize=auto;html=1;exitX=0.5;exitY=1;exitDx=0;exitDy=0;entryX=0.5;entryY=0;entryDx=0;entryDy=0;opacity=60;fontSize=18;labelBackgroundColor=none;" parent="1" target="A8BWSiHvY98nCif8WAlf-59" edge="1">
                    <mxGeometry relative="1" as="geometry">
                        <mxPoint x="535" y="250" as="sourcePoint"/>
                    </mxGeometry>
                </mxCell>
                <mxCell id="A8BWSiHvY98nCif8WAlf-64" style="edgeStyle=orthogonalEdgeStyle;curved=1;rounded=0;orthogonalLoop=1;jettySize=auto;html=1;exitX=0.5;exitY=1;exitDx=0;exitDy=0;entryX=0.5;entryY=0;entryDx=0;entryDy=0;opacity=60;fontSize=18;labelBackgroundColor=none;" parent="1" target="A8BWSiHvY98nCif8WAlf-60" edge="1">
                    <mxGeometry relative="1" as="geometry">
                        <mxPoint x="565" y="250" as="sourcePoint"/>
                    </mxGeometry>
                </mxCell>
                <mxCell id="A8BWSiHvY98nCif8WAlf-108" style="edgeStyle=orthogonalEdgeStyle;curved=1;rounded=0;orthogonalLoop=1;jettySize=auto;html=1;exitX=0.25;exitY=1;exitDx=0;exitDy=0;entryX=0.25;entryY=0;entryDx=0;entryDy=0;strokeColor=#000000;fontSize=18;labelBackgroundColor=none;" parent="1" source="n-Szu6wr4hjMIO969oJX-18" target="A8BWSiHvY98nCif8WAlf-32" edge="1">
                    <mxGeometry relative="1" as="geometry"/>
                </mxCell>
                <mxCell id="A8BWSiHvY98nCif8WAlf-109" value="" style="shape=image;html=1;verticalAlign=top;verticalLabelPosition=bottom;labelBackgroundColor=none;imageAspect=0;aspect=fixed;image=https://cdn0.iconfinder.com/data/icons/zondicons/20/dots-horizontal-triple-128.png;rotation=-90;fontSize=18;" parent="1" vertex="1">
                    <mxGeometry x="70" y="320" width="40" height="40" as="geometry"/>
                </mxCell>
                <mxCell id="A8BWSiHvY98nCif8WAlf-110" value="" style="shape=image;html=1;verticalAlign=top;verticalLabelPosition=bottom;labelBackgroundColor=none;imageAspect=0;aspect=fixed;image=https://cdn0.iconfinder.com/data/icons/zondicons/20/dots-horizontal-triple-128.png;rotation=-90;fontSize=18;" parent="1" vertex="1">
                    <mxGeometry x="700" y="320" width="40" height="40" as="geometry"/>
                </mxCell>
            </root>
        </mxGraphModel>
    </diagram>
    <diagram id="8MVUZMckuv3xLUQD6Xj3" name="Page-2">
        <mxGraphModel dx="2062" dy="1164" grid="1" gridSize="10" guides="1" tooltips="1" connect="1" arrows="1" fold="1" page="1" pageScale="1" pageWidth="827" pageHeight="1169" math="0" shadow="0">
            <root>
                <mxCell id="Wz0sJZdLdJGpfcNMKY8L-0"/>
                <mxCell id="Wz0sJZdLdJGpfcNMKY8L-1" parent="Wz0sJZdLdJGpfcNMKY8L-0"/>
                <mxCell id="Wz0sJZdLdJGpfcNMKY8L-126" style="edgeStyle=orthogonalEdgeStyle;curved=1;rounded=0;orthogonalLoop=1;jettySize=auto;html=1;entryX=0;entryY=0;entryDx=0;entryDy=0;" parent="Wz0sJZdLdJGpfcNMKY8L-1" target="Wz0sJZdLdJGpfcNMKY8L-106" edge="1">
                    <mxGeometry relative="1" as="geometry">
                        <Array as="points">
                            <mxPoint x="463" y="90"/>
                            <mxPoint x="328" y="90"/>
                        </Array>
                        <mxPoint x="463" y="70" as="sourcePoint"/>
                    </mxGeometry>
                </mxCell>
                <mxCell id="Wz0sJZdLdJGpfcNMKY8L-127" style="edgeStyle=orthogonalEdgeStyle;curved=1;rounded=0;orthogonalLoop=1;jettySize=auto;html=1;entryX=0;entryY=0;entryDx=0;entryDy=0;" parent="Wz0sJZdLdJGpfcNMKY8L-1" target="Wz0sJZdLdJGpfcNMKY8L-112" edge="1">
                    <mxGeometry relative="1" as="geometry">
                        <mxPoint x="488" y="70" as="sourcePoint"/>
                        <Array as="points">
                            <mxPoint x="488" y="70"/>
                        </Array>
                    </mxGeometry>
                </mxCell>
                <mxCell id="Wz0sJZdLdJGpfcNMKY8L-128" style="edgeStyle=orthogonalEdgeStyle;curved=1;rounded=0;orthogonalLoop=1;jettySize=auto;html=1;entryX=0;entryY=0;entryDx=0;entryDy=0;" parent="Wz0sJZdLdJGpfcNMKY8L-1" target="Wz0sJZdLdJGpfcNMKY8L-118" edge="1">
                    <mxGeometry relative="1" as="geometry">
                        <Array as="points">
                            <mxPoint x="523" y="80"/>
                            <mxPoint x="648" y="80"/>
                        </Array>
                        <mxPoint x="523" y="70" as="sourcePoint"/>
                    </mxGeometry>
                </mxCell>
                <mxCell id="Wz0sJZdLdJGpfcNMKY8L-133" style="edgeStyle=orthogonalEdgeStyle;curved=1;rounded=0;orthogonalLoop=1;jettySize=auto;html=1;" parent="Wz0sJZdLdJGpfcNMKY8L-1" source="Wz0sJZdLdJGpfcNMKY8L-104" target="Wz0sJZdLdJGpfcNMKY8L-151" edge="1">
                    <mxGeometry relative="1" as="geometry"/>
                </mxCell>
                <mxCell id="Wz0sJZdLdJGpfcNMKY8L-134" style="edgeStyle=orthogonalEdgeStyle;curved=1;rounded=0;orthogonalLoop=1;jettySize=auto;html=1;entryX=0.5;entryY=0;entryDx=0;entryDy=0;" parent="Wz0sJZdLdJGpfcNMKY8L-1" source="Wz0sJZdLdJGpfcNMKY8L-105" target="Wz0sJZdLdJGpfcNMKY8L-154" edge="1">
                    <mxGeometry relative="1" as="geometry"/>
                </mxCell>
                <mxCell id="Wz0sJZdLdJGpfcNMKY8L-135" style="edgeStyle=orthogonalEdgeStyle;curved=1;rounded=0;orthogonalLoop=1;jettySize=auto;html=1;entryX=0.5;entryY=0;entryDx=0;entryDy=0;" parent="Wz0sJZdLdJGpfcNMKY8L-1" source="Wz0sJZdLdJGpfcNMKY8L-106" target="Wz0sJZdLdJGpfcNMKY8L-152" edge="1">
                    <mxGeometry relative="1" as="geometry"/>
                </mxCell>
                <mxCell id="Wz0sJZdLdJGpfcNMKY8L-136" style="edgeStyle=orthogonalEdgeStyle;curved=1;rounded=0;orthogonalLoop=1;jettySize=auto;html=1;entryX=0.5;entryY=0;entryDx=0;entryDy=0;" parent="Wz0sJZdLdJGpfcNMKY8L-1" source="Wz0sJZdLdJGpfcNMKY8L-107" target="Wz0sJZdLdJGpfcNMKY8L-153" edge="1">
                    <mxGeometry relative="1" as="geometry"/>
                </mxCell>
                <mxCell id="Wz0sJZdLdJGpfcNMKY8L-137" style="edgeStyle=orthogonalEdgeStyle;curved=1;rounded=0;orthogonalLoop=1;jettySize=auto;html=1;entryX=0.5;entryY=0;entryDx=0;entryDy=0;" parent="Wz0sJZdLdJGpfcNMKY8L-1" source="Wz0sJZdLdJGpfcNMKY8L-110" target="Wz0sJZdLdJGpfcNMKY8L-156" edge="1">
                    <mxGeometry relative="1" as="geometry"/>
                </mxCell>
                <mxCell id="Wz0sJZdLdJGpfcNMKY8L-138" style="edgeStyle=orthogonalEdgeStyle;curved=1;rounded=0;orthogonalLoop=1;jettySize=auto;html=1;entryX=0.5;entryY=0;entryDx=0;entryDy=0;" parent="Wz0sJZdLdJGpfcNMKY8L-1" source="Wz0sJZdLdJGpfcNMKY8L-111" target="Wz0sJZdLdJGpfcNMKY8L-157" edge="1">
                    <mxGeometry relative="1" as="geometry"/>
                </mxCell>
                <mxCell id="Wz0sJZdLdJGpfcNMKY8L-139" style="edgeStyle=orthogonalEdgeStyle;curved=1;rounded=0;orthogonalLoop=1;jettySize=auto;html=1;entryX=0.5;entryY=0;entryDx=0;entryDy=0;" parent="Wz0sJZdLdJGpfcNMKY8L-1" source="Wz0sJZdLdJGpfcNMKY8L-112" target="Wz0sJZdLdJGpfcNMKY8L-158" edge="1">
                    <mxGeometry relative="1" as="geometry"/>
                </mxCell>
                <mxCell id="Wz0sJZdLdJGpfcNMKY8L-140" style="edgeStyle=orthogonalEdgeStyle;curved=1;rounded=0;orthogonalLoop=1;jettySize=auto;html=1;entryX=0.5;entryY=0;entryDx=0;entryDy=0;" parent="Wz0sJZdLdJGpfcNMKY8L-1" source="Wz0sJZdLdJGpfcNMKY8L-113" target="Wz0sJZdLdJGpfcNMKY8L-159" edge="1">
                    <mxGeometry relative="1" as="geometry"/>
                </mxCell>
                <mxCell id="Wz0sJZdLdJGpfcNMKY8L-141" style="edgeStyle=orthogonalEdgeStyle;curved=1;rounded=0;orthogonalLoop=1;jettySize=auto;html=1;entryX=0.5;entryY=0;entryDx=0;entryDy=0;" parent="Wz0sJZdLdJGpfcNMKY8L-1" source="Wz0sJZdLdJGpfcNMKY8L-116" target="Wz0sJZdLdJGpfcNMKY8L-161" edge="1">
                    <mxGeometry relative="1" as="geometry"/>
                </mxCell>
                <mxCell id="Wz0sJZdLdJGpfcNMKY8L-142" style="edgeStyle=orthogonalEdgeStyle;curved=1;rounded=0;orthogonalLoop=1;jettySize=auto;html=1;" parent="Wz0sJZdLdJGpfcNMKY8L-1" source="Wz0sJZdLdJGpfcNMKY8L-117" target="Wz0sJZdLdJGpfcNMKY8L-162" edge="1">
                    <mxGeometry relative="1" as="geometry"/>
                </mxCell>
                <mxCell id="Wz0sJZdLdJGpfcNMKY8L-143" style="edgeStyle=orthogonalEdgeStyle;curved=1;rounded=0;orthogonalLoop=1;jettySize=auto;html=1;entryX=0.5;entryY=0;entryDx=0;entryDy=0;" parent="Wz0sJZdLdJGpfcNMKY8L-1" source="Wz0sJZdLdJGpfcNMKY8L-118" target="Wz0sJZdLdJGpfcNMKY8L-163" edge="1">
                    <mxGeometry relative="1" as="geometry"/>
                </mxCell>
                <mxCell id="Wz0sJZdLdJGpfcNMKY8L-144" style="edgeStyle=orthogonalEdgeStyle;curved=1;rounded=0;orthogonalLoop=1;jettySize=auto;html=1;entryX=0.5;entryY=0;entryDx=0;entryDy=0;" parent="Wz0sJZdLdJGpfcNMKY8L-1" source="Wz0sJZdLdJGpfcNMKY8L-119" target="Wz0sJZdLdJGpfcNMKY8L-164" edge="1">
                    <mxGeometry relative="1" as="geometry"/>
                </mxCell>
                <mxCell id="Wz0sJZdLdJGpfcNMKY8L-150" value="" style="group" parent="Wz0sJZdLdJGpfcNMKY8L-1" vertex="1" connectable="0">
                    <mxGeometry x="268" y="180" width="120" height="30" as="geometry"/>
                </mxCell>
                <mxCell id="Wz0sJZdLdJGpfcNMKY8L-151" value="Block 421" style="shape=image;html=1;verticalAlign=top;verticalLabelPosition=bottom;labelBackgroundColor=#ffffff;imageAspect=0;aspect=fixed;image=https://cdn0.iconfinder.com/data/icons/blockchain-classic/270/ChainLink-128.png;labelPosition=center;align=center;" parent="Wz0sJZdLdJGpfcNMKY8L-150" vertex="1">
                    <mxGeometry width="30" height="30" as="geometry"/>
                </mxCell>
                <mxCell id="Wz0sJZdLdJGpfcNMKY8L-152" value="Block 423" style="shape=image;html=1;verticalAlign=top;verticalLabelPosition=bottom;labelBackgroundColor=#ffffff;imageAspect=0;aspect=fixed;image=https://cdn0.iconfinder.com/data/icons/blockchain-classic/270/ChainLink-128.png;labelPosition=center;align=center;spacingBottom=7;" parent="Wz0sJZdLdJGpfcNMKY8L-150" vertex="1">
                    <mxGeometry x="60" width="30" height="30" as="geometry"/>
                </mxCell>
                <mxCell id="Wz0sJZdLdJGpfcNMKY8L-153" value="Block 424" style="shape=image;html=1;verticalAlign=bottom;verticalLabelPosition=top;labelBackgroundColor=#ffffff;imageAspect=0;aspect=fixed;image=https://cdn0.iconfinder.com/data/icons/blockchain-classic/270/ChainLink-128.png;labelPosition=center;align=center;spacingBottom=7;" parent="Wz0sJZdLdJGpfcNMKY8L-150" vertex="1">
                    <mxGeometry x="90" width="30" height="30" as="geometry"/>
                </mxCell>
                <mxCell id="Wz0sJZdLdJGpfcNMKY8L-154" value="Block 422" style="shape=image;html=1;verticalAlign=bottom;verticalLabelPosition=top;labelBackgroundColor=#ffffff;imageAspect=0;aspect=fixed;image=https://cdn0.iconfinder.com/data/icons/blockchain-classic/270/ChainLink-128.png;labelPosition=center;align=center;spacingBottom=7;" parent="Wz0sJZdLdJGpfcNMKY8L-150" vertex="1">
                    <mxGeometry x="30" width="30" height="30" as="geometry"/>
                </mxCell>
                <mxCell id="Wz0sJZdLdJGpfcNMKY8L-184" value="" style="shape=image;html=1;verticalAlign=top;verticalLabelPosition=bottom;labelBackgroundColor=#ffffff;imageAspect=0;aspect=fixed;image=https://cdn2.iconfinder.com/data/icons/greenline/512/check-128.png" parent="Wz0sJZdLdJGpfcNMKY8L-150" vertex="1">
                    <mxGeometry x="35" y="5" width="20" height="20" as="geometry"/>
                </mxCell>
                <mxCell id="Wz0sJZdLdJGpfcNMKY8L-185" value="" style="shape=image;html=1;verticalAlign=top;verticalLabelPosition=bottom;labelBackgroundColor=#ffffff;imageAspect=0;aspect=fixed;image=https://cdn4.iconfinder.com/data/icons/gradient-ui-1/512/error-128.png" parent="Wz0sJZdLdJGpfcNMKY8L-150" vertex="1">
                    <mxGeometry x="65" y="5" width="20" height="20" as="geometry"/>
                </mxCell>
                <mxCell id="Wz0sJZdLdJGpfcNMKY8L-187" value="" style="shape=image;html=1;verticalAlign=top;verticalLabelPosition=bottom;labelBackgroundColor=#ffffff;imageAspect=0;aspect=fixed;image=https://cdn2.iconfinder.com/data/icons/greenline/512/check-128.png" parent="Wz0sJZdLdJGpfcNMKY8L-150" vertex="1">
                    <mxGeometry x="95" y="5" width="20" height="20" as="geometry"/>
                </mxCell>
                <mxCell id="Wz0sJZdLdJGpfcNMKY8L-155" value="" style="group" parent="Wz0sJZdLdJGpfcNMKY8L-1" vertex="1" connectable="0">
                    <mxGeometry x="428" y="180" width="120" height="30" as="geometry"/>
                </mxCell>
                <mxCell id="Wz0sJZdLdJGpfcNMKY8L-156" value="Block 425" style="shape=image;html=1;verticalAlign=top;verticalLabelPosition=bottom;labelBackgroundColor=#ffffff;imageAspect=0;aspect=fixed;image=https://cdn0.iconfinder.com/data/icons/blockchain-classic/270/ChainLink-128.png;labelPosition=center;align=center;" parent="Wz0sJZdLdJGpfcNMKY8L-155" vertex="1">
                    <mxGeometry width="30" height="30" as="geometry"/>
                </mxCell>
                <mxCell id="Wz0sJZdLdJGpfcNMKY8L-157" value="Block 426" style="shape=image;html=1;verticalAlign=bottom;verticalLabelPosition=top;labelBackgroundColor=#ffffff;imageAspect=0;aspect=fixed;image=https://cdn0.iconfinder.com/data/icons/blockchain-classic/270/ChainLink-128.png;labelPosition=center;align=center;spacingBottom=7;" parent="Wz0sJZdLdJGpfcNMKY8L-155" vertex="1">
                    <mxGeometry x="30" width="30" height="30" as="geometry"/>
                </mxCell>
                <mxCell id="Wz0sJZdLdJGpfcNMKY8L-158" value="Block 427" style="shape=image;html=1;verticalAlign=top;verticalLabelPosition=bottom;labelBackgroundColor=#ffffff;imageAspect=0;aspect=fixed;image=https://cdn0.iconfinder.com/data/icons/blockchain-classic/270/ChainLink-128.png;labelPosition=center;align=center;" parent="Wz0sJZdLdJGpfcNMKY8L-155" vertex="1">
                    <mxGeometry x="60" width="30" height="30" as="geometry"/>
                </mxCell>
                <mxCell id="Wz0sJZdLdJGpfcNMKY8L-159" value="Block 428" style="shape=image;html=1;verticalAlign=bottom;verticalLabelPosition=top;labelBackgroundColor=#ffffff;imageAspect=0;aspect=fixed;image=https://cdn0.iconfinder.com/data/icons/blockchain-classic/270/ChainLink-128.png;labelPosition=center;align=center;spacingBottom=7;" parent="Wz0sJZdLdJGpfcNMKY8L-155" vertex="1">
                    <mxGeometry x="90" width="30" height="30" as="geometry"/>
                </mxCell>
                <mxCell id="Wz0sJZdLdJGpfcNMKY8L-190" value="" style="shape=image;html=1;verticalAlign=top;verticalLabelPosition=bottom;labelBackgroundColor=#ffffff;imageAspect=0;aspect=fixed;image=https://cdn2.iconfinder.com/data/icons/greenline/512/check-128.png" parent="Wz0sJZdLdJGpfcNMKY8L-155" vertex="1">
                    <mxGeometry x="5" y="5" width="20" height="20" as="geometry"/>
                </mxCell>
                <mxCell id="Wz0sJZdLdJGpfcNMKY8L-191" value="" style="shape=image;html=1;verticalAlign=top;verticalLabelPosition=bottom;labelBackgroundColor=#ffffff;imageAspect=0;aspect=fixed;image=https://cdn4.iconfinder.com/data/icons/gradient-ui-1/512/error-128.png" parent="Wz0sJZdLdJGpfcNMKY8L-155" vertex="1">
                    <mxGeometry x="35" y="5" width="20" height="20" as="geometry"/>
                </mxCell>
                <mxCell id="Wz0sJZdLdJGpfcNMKY8L-193" value="" style="shape=image;html=1;verticalAlign=top;verticalLabelPosition=bottom;labelBackgroundColor=#ffffff;imageAspect=0;aspect=fixed;image=https://cdn4.iconfinder.com/data/icons/gradient-ui-1/512/error-128.png" parent="Wz0sJZdLdJGpfcNMKY8L-155" vertex="1">
                    <mxGeometry x="65" y="5" width="20" height="20" as="geometry"/>
                </mxCell>
                <mxCell id="Wz0sJZdLdJGpfcNMKY8L-195" value="" style="shape=image;html=1;verticalAlign=top;verticalLabelPosition=bottom;labelBackgroundColor=#ffffff;imageAspect=0;aspect=fixed;image=https://cdn2.iconfinder.com/data/icons/greenline/512/check-128.png" parent="Wz0sJZdLdJGpfcNMKY8L-155" vertex="1">
                    <mxGeometry x="95" y="5" width="20" height="20" as="geometry"/>
                </mxCell>
                <mxCell id="Wz0sJZdLdJGpfcNMKY8L-160" value="" style="group" parent="Wz0sJZdLdJGpfcNMKY8L-1" vertex="1" connectable="0">
                    <mxGeometry x="588" y="180" width="120" height="30" as="geometry"/>
                </mxCell>
                <mxCell id="Wz0sJZdLdJGpfcNMKY8L-161" value="Block 429" style="shape=image;html=1;verticalAlign=top;verticalLabelPosition=bottom;labelBackgroundColor=#ffffff;imageAspect=0;aspect=fixed;image=https://cdn0.iconfinder.com/data/icons/blockchain-classic/270/ChainLink-128.png;labelPosition=center;align=center;" parent="Wz0sJZdLdJGpfcNMKY8L-160" vertex="1">
                    <mxGeometry width="30" height="30" as="geometry"/>
                </mxCell>
                <mxCell id="Wz0sJZdLdJGpfcNMKY8L-162" value="Block 430" style="shape=image;html=1;verticalAlign=bottom;verticalLabelPosition=top;labelBackgroundColor=#ffffff;imageAspect=0;aspect=fixed;image=https://cdn0.iconfinder.com/data/icons/blockchain-classic/270/ChainLink-128.png;labelPosition=center;align=center;spacingBottom=7;" parent="Wz0sJZdLdJGpfcNMKY8L-160" vertex="1">
                    <mxGeometry x="30" width="30" height="30" as="geometry"/>
                </mxCell>
                <mxCell id="Wz0sJZdLdJGpfcNMKY8L-163" value="Block 431" style="shape=image;html=1;verticalAlign=top;verticalLabelPosition=bottom;labelBackgroundColor=#ffffff;imageAspect=0;aspect=fixed;image=https://cdn0.iconfinder.com/data/icons/blockchain-classic/270/ChainLink-128.png;labelPosition=center;align=center;" parent="Wz0sJZdLdJGpfcNMKY8L-160" vertex="1">
                    <mxGeometry x="60" width="30" height="30" as="geometry"/>
                </mxCell>
                <mxCell id="Wz0sJZdLdJGpfcNMKY8L-164" value="Block 432" style="shape=image;html=1;verticalAlign=bottom;verticalLabelPosition=top;labelBackgroundColor=#ffffff;imageAspect=0;aspect=fixed;image=https://cdn0.iconfinder.com/data/icons/blockchain-classic/270/ChainLink-128.png;labelPosition=center;align=center;spacingBottom=7;" parent="Wz0sJZdLdJGpfcNMKY8L-160" vertex="1">
                    <mxGeometry x="90" width="30" height="30" as="geometry"/>
                </mxCell>
                <mxCell id="Wz0sJZdLdJGpfcNMKY8L-196" value="" style="shape=image;html=1;verticalAlign=top;verticalLabelPosition=bottom;labelBackgroundColor=#ffffff;imageAspect=0;aspect=fixed;image=https://cdn4.iconfinder.com/data/icons/gradient-ui-1/512/error-128.png" parent="Wz0sJZdLdJGpfcNMKY8L-160" vertex="1">
                    <mxGeometry x="5" y="5" width="20" height="20" as="geometry"/>
                </mxCell>
                <mxCell id="Wz0sJZdLdJGpfcNMKY8L-198" value="" style="shape=image;html=1;verticalAlign=top;verticalLabelPosition=bottom;labelBackgroundColor=#ffffff;imageAspect=0;aspect=fixed;image=https://cdn2.iconfinder.com/data/icons/greenline/512/check-128.png" parent="Wz0sJZdLdJGpfcNMKY8L-160" vertex="1">
                    <mxGeometry x="35" y="5" width="20" height="20" as="geometry"/>
                </mxCell>
                <mxCell id="Wz0sJZdLdJGpfcNMKY8L-180" value="" style="group" parent="Wz0sJZdLdJGpfcNMKY8L-1" vertex="1" connectable="0">
                    <mxGeometry x="548" y="250" width="170" height="180" as="geometry"/>
                </mxCell>
                <mxCell id="Wz0sJZdLdJGpfcNMKY8L-177" value="&lt;p style=&quot;margin: 4px 0px 0px ; text-align: center ; line-height: 120%&quot;&gt;&lt;i&gt;Hashtable from subquery&lt;/i&gt;&lt;/p&gt;&lt;hr size=&quot;1&quot;&gt;&lt;p style=&quot;margin: 0px 0px 0px 4px&quot;&gt;&lt;font face=&quot;Courier New&quot;&gt;&lt;span style=&quot;font-size: 13px&quot;&gt;&lt;b&gt;428&amp;nbsp; IPFS block addr&lt;/b&gt;&lt;/span&gt;&lt;/font&gt;&lt;/p&gt;&lt;p style=&quot;margin: 0px 0px 0px 4px&quot;&gt;&lt;font face=&quot;Courier New&quot;&gt;&lt;span style=&quot;font-size: 13px&quot;&gt;&lt;b&gt;328&amp;nbsp; IPFS block addr&lt;/b&gt;&lt;/span&gt;&lt;/font&gt;&lt;/p&gt;&lt;p style=&quot;margin: 0px 0px 0px 4px&quot;&gt;&lt;font face=&quot;Courier New&quot;&gt;&lt;span style=&quot;font-size: 13px&quot;&gt;&lt;b&gt;425&amp;nbsp; IPFS block addr&lt;/b&gt;&lt;/span&gt;&lt;/font&gt;&lt;/p&gt;&lt;p style=&quot;margin: 0px 0px 0px 4px&quot;&gt;&lt;font face=&quot;Courier New&quot;&gt;&lt;span style=&quot;font-size: 13px&quot;&gt;&lt;b&gt;172&amp;nbsp; IPFS block addr&lt;/b&gt;&lt;/span&gt;&lt;/font&gt;&lt;/p&gt;&lt;p style=&quot;margin: 0px 0px 0px 4px&quot;&gt;&lt;font face=&quot;Courier New&quot;&gt;&lt;span style=&quot;font-size: 13px&quot;&gt;&lt;b&gt;422&amp;nbsp; IPFS block addr&lt;/b&gt;&lt;/span&gt;&lt;/font&gt;&lt;/p&gt;&lt;p style=&quot;margin: 0px 0px 0px 4px&quot;&gt;&lt;font face=&quot;Courier New&quot;&gt;&lt;span style=&quot;font-size: 13px&quot;&gt;&lt;b&gt;424&amp;nbsp; IPFS block addr&lt;/b&gt;&lt;/span&gt;&lt;/font&gt;&lt;/p&gt;&lt;p style=&quot;margin: 0px 0px 0px 4px&quot;&gt;&lt;font face=&quot;Courier New&quot;&gt;&lt;span style=&quot;font-size: 13px&quot;&gt;&lt;b&gt;430&amp;nbsp; IPFS block addr&lt;/b&gt;&lt;/span&gt;&lt;/font&gt;&lt;/p&gt;&lt;p style=&quot;margin: 0px 0px 0px 4px&quot;&gt;&lt;font face=&quot;Courier New&quot;&gt;&lt;span style=&quot;font-size: 13px&quot;&gt;&lt;b&gt;543&amp;nbsp; IPFS block addr&lt;/b&gt;&lt;/span&gt;&lt;/font&gt;&lt;/p&gt;&lt;p style=&quot;text-align: center ; margin: 0px 0px 0px 4px&quot;&gt;&lt;font face=&quot;Courier New&quot;&gt;&lt;span style=&quot;font-size: 13px&quot;&gt;&lt;b&gt;...&lt;/b&gt;&lt;/span&gt;&lt;/font&gt;&lt;/p&gt;&lt;p style=&quot;margin: 0px 0px 0px 4px ; font-size: 13px&quot;&gt;&lt;br&gt;&lt;/p&gt;" style="verticalAlign=top;align=left;overflow=fill;fontSize=12;fontFamily=Helvetica;html=1;spacing=7;" parent="Wz0sJZdLdJGpfcNMKY8L-180" vertex="1">
                    <mxGeometry width="170" height="180" as="geometry"/>
                </mxCell>
                <mxCell id="Wz0sJZdLdJGpfcNMKY8L-179" value="" style="endArrow=none;html=1;entryX=0.25;entryY=1;entryDx=0;entryDy=0;" parent="Wz0sJZdLdJGpfcNMKY8L-180" edge="1">
                    <mxGeometry width="50" height="50" relative="1" as="geometry">
                        <mxPoint x="39" y="178" as="sourcePoint"/>
                        <mxPoint x="38.5" y="24" as="targetPoint"/>
                    </mxGeometry>
                </mxCell>
                <mxCell id="Wz0sJZdLdJGpfcNMKY8L-182" style="edgeStyle=orthogonalEdgeStyle;rounded=0;orthogonalLoop=1;jettySize=auto;html=1;entryX=-0.016;entryY=0.547;entryDx=0;entryDy=0;curved=1;entryPerimeter=0;" parent="Wz0sJZdLdJGpfcNMKY8L-1" source="Wz0sJZdLdJGpfcNMKY8L-154" target="Wz0sJZdLdJGpfcNMKY8L-177" edge="1">
                    <mxGeometry relative="1" as="geometry">
                        <Array as="points">
                            <mxPoint x="313" y="349"/>
                        </Array>
                    </mxGeometry>
                </mxCell>
                <mxCell id="Wz0sJZdLdJGpfcNMKY8L-186" style="edgeStyle=orthogonalEdgeStyle;curved=1;rounded=0;orthogonalLoop=1;jettySize=auto;html=1;entryX=-0.012;entryY=0.626;entryDx=0;entryDy=0;entryPerimeter=0;" parent="Wz0sJZdLdJGpfcNMKY8L-1" source="Wz0sJZdLdJGpfcNMKY8L-153" target="Wz0sJZdLdJGpfcNMKY8L-177" edge="1">
                    <mxGeometry relative="1" as="geometry">
                        <Array as="points">
                            <mxPoint x="373" y="363"/>
                        </Array>
                    </mxGeometry>
                </mxCell>
                <mxCell id="Wz0sJZdLdJGpfcNMKY8L-188" style="edgeStyle=orthogonalEdgeStyle;curved=1;rounded=0;orthogonalLoop=1;jettySize=auto;html=1;entryX=-0.003;entryY=0.373;entryDx=0;entryDy=0;entryPerimeter=0;" parent="Wz0sJZdLdJGpfcNMKY8L-1" source="Wz0sJZdLdJGpfcNMKY8L-156" target="Wz0sJZdLdJGpfcNMKY8L-177" edge="1">
                    <mxGeometry relative="1" as="geometry">
                        <Array as="points">
                            <mxPoint x="443" y="317"/>
                        </Array>
                    </mxGeometry>
                </mxCell>
                <mxCell id="Wz0sJZdLdJGpfcNMKY8L-194" style="edgeStyle=orthogonalEdgeStyle;curved=1;rounded=0;orthogonalLoop=1;jettySize=auto;html=1;entryX=-0.009;entryY=0.21;entryDx=0;entryDy=0;entryPerimeter=0;exitX=0.5;exitY=1;exitDx=0;exitDy=0;" parent="Wz0sJZdLdJGpfcNMKY8L-1" source="Wz0sJZdLdJGpfcNMKY8L-159" target="Wz0sJZdLdJGpfcNMKY8L-177" edge="1">
                    <mxGeometry relative="1" as="geometry">
                        <Array as="points">
                            <mxPoint x="533" y="288"/>
                        </Array>
                    </mxGeometry>
                </mxCell>
                <mxCell id="Wz0sJZdLdJGpfcNMKY8L-197" style="edgeStyle=orthogonalEdgeStyle;curved=1;rounded=0;orthogonalLoop=1;jettySize=auto;html=1;entryX=0.001;entryY=0.7;entryDx=0;entryDy=0;entryPerimeter=0;" parent="Wz0sJZdLdJGpfcNMKY8L-1" source="Wz0sJZdLdJGpfcNMKY8L-162" target="Wz0sJZdLdJGpfcNMKY8L-177" edge="1">
                    <mxGeometry relative="1" as="geometry">
                        <Array as="points">
                            <mxPoint x="633" y="240"/>
                            <mxPoint x="490" y="240"/>
                            <mxPoint x="490" y="376"/>
                        </Array>
                    </mxGeometry>
                </mxCell>
                <mxCell id="Wz0sJZdLdJGpfcNMKY8L-102" value="" style="group" parent="Wz0sJZdLdJGpfcNMKY8L-1" vertex="1" connectable="0">
                    <mxGeometry x="268" y="110" width="120" height="30" as="geometry"/>
                </mxCell>
                <mxCell id="Wz0sJZdLdJGpfcNMKY8L-103" value="" style="rounded=0;whiteSpace=wrap;html=1;" parent="Wz0sJZdLdJGpfcNMKY8L-102" vertex="1">
                    <mxGeometry width="120" height="30" as="geometry"/>
                </mxCell>
                <mxCell id="Wz0sJZdLdJGpfcNMKY8L-104" value="421" style="rounded=0;whiteSpace=wrap;html=1;" parent="Wz0sJZdLdJGpfcNMKY8L-102" vertex="1">
                    <mxGeometry width="30" height="30" as="geometry"/>
                </mxCell>
                <mxCell id="Wz0sJZdLdJGpfcNMKY8L-105" value="422" style="rounded=0;whiteSpace=wrap;html=1;" parent="Wz0sJZdLdJGpfcNMKY8L-102" vertex="1">
                    <mxGeometry x="30" width="30" height="30" as="geometry"/>
                </mxCell>
                <mxCell id="Wz0sJZdLdJGpfcNMKY8L-106" value="423" style="rounded=0;whiteSpace=wrap;html=1;" parent="Wz0sJZdLdJGpfcNMKY8L-102" vertex="1">
                    <mxGeometry x="60" width="30" height="30" as="geometry"/>
                </mxCell>
                <mxCell id="Wz0sJZdLdJGpfcNMKY8L-107" value="424" style="rounded=0;whiteSpace=wrap;html=1;" parent="Wz0sJZdLdJGpfcNMKY8L-102" vertex="1">
                    <mxGeometry x="90" width="30" height="30" as="geometry"/>
                </mxCell>
                <mxCell id="Wz0sJZdLdJGpfcNMKY8L-108" value="" style="group" parent="Wz0sJZdLdJGpfcNMKY8L-1" vertex="1" connectable="0">
                    <mxGeometry x="428" y="110" width="120" height="30" as="geometry"/>
                </mxCell>
                <mxCell id="Wz0sJZdLdJGpfcNMKY8L-109" value="" style="rounded=0;whiteSpace=wrap;html=1;" parent="Wz0sJZdLdJGpfcNMKY8L-108" vertex="1">
                    <mxGeometry width="120" height="30" as="geometry"/>
                </mxCell>
                <mxCell id="Wz0sJZdLdJGpfcNMKY8L-110" value="425" style="rounded=0;whiteSpace=wrap;html=1;" parent="Wz0sJZdLdJGpfcNMKY8L-108" vertex="1">
                    <mxGeometry width="30" height="30" as="geometry"/>
                </mxCell>
                <mxCell id="Wz0sJZdLdJGpfcNMKY8L-111" value="426" style="rounded=0;whiteSpace=wrap;html=1;" parent="Wz0sJZdLdJGpfcNMKY8L-108" vertex="1">
                    <mxGeometry x="30" width="30" height="30" as="geometry"/>
                </mxCell>
                <mxCell id="Wz0sJZdLdJGpfcNMKY8L-112" value="427" style="rounded=0;whiteSpace=wrap;html=1;" parent="Wz0sJZdLdJGpfcNMKY8L-108" vertex="1">
                    <mxGeometry x="60" width="30" height="30" as="geometry"/>
                </mxCell>
                <mxCell id="Wz0sJZdLdJGpfcNMKY8L-113" value="428" style="rounded=0;whiteSpace=wrap;html=1;" parent="Wz0sJZdLdJGpfcNMKY8L-108" vertex="1">
                    <mxGeometry x="90" width="30" height="30" as="geometry"/>
                </mxCell>
                <mxCell id="Wz0sJZdLdJGpfcNMKY8L-114" value="" style="group" parent="Wz0sJZdLdJGpfcNMKY8L-1" vertex="1" connectable="0">
                    <mxGeometry x="588" y="110" width="120" height="30" as="geometry"/>
                </mxCell>
                <mxCell id="Wz0sJZdLdJGpfcNMKY8L-115" value="" style="rounded=0;whiteSpace=wrap;html=1;" parent="Wz0sJZdLdJGpfcNMKY8L-114" vertex="1">
                    <mxGeometry width="120" height="30" as="geometry"/>
                </mxCell>
                <mxCell id="Wz0sJZdLdJGpfcNMKY8L-116" value="429" style="rounded=0;whiteSpace=wrap;html=1;" parent="Wz0sJZdLdJGpfcNMKY8L-114" vertex="1">
                    <mxGeometry width="30" height="30" as="geometry"/>
                </mxCell>
                <mxCell id="Wz0sJZdLdJGpfcNMKY8L-117" value="430" style="rounded=0;whiteSpace=wrap;html=1;" parent="Wz0sJZdLdJGpfcNMKY8L-114" vertex="1">
                    <mxGeometry x="30" width="30" height="30" as="geometry"/>
                </mxCell>
                <mxCell id="Wz0sJZdLdJGpfcNMKY8L-118" value="431" style="rounded=0;whiteSpace=wrap;html=1;" parent="Wz0sJZdLdJGpfcNMKY8L-114" vertex="1">
                    <mxGeometry x="60" width="30" height="30" as="geometry"/>
                </mxCell>
                <mxCell id="Wz0sJZdLdJGpfcNMKY8L-119" value="432" style="rounded=0;whiteSpace=wrap;html=1;" parent="Wz0sJZdLdJGpfcNMKY8L-114" vertex="1">
                    <mxGeometry x="90" width="30" height="30" as="geometry"/>
                </mxCell>
                <mxCell id="Wz0sJZdLdJGpfcNMKY8L-121" style="edgeStyle=orthogonalEdgeStyle;rounded=0;orthogonalLoop=1;jettySize=auto;html=1;exitX=1;exitY=0.25;exitDx=0;exitDy=0;entryX=0;entryY=0.25;entryDx=0;entryDy=0;" parent="Wz0sJZdLdJGpfcNMKY8L-1" source="Wz0sJZdLdJGpfcNMKY8L-107" target="Wz0sJZdLdJGpfcNMKY8L-110" edge="1">
                    <mxGeometry relative="1" as="geometry"/>
                </mxCell>
                <mxCell id="Wz0sJZdLdJGpfcNMKY8L-122" style="edgeStyle=orthogonalEdgeStyle;rounded=0;orthogonalLoop=1;jettySize=auto;html=1;exitX=0;exitY=0.75;exitDx=0;exitDy=0;entryX=1;entryY=0.75;entryDx=0;entryDy=0;" parent="Wz0sJZdLdJGpfcNMKY8L-1" source="Wz0sJZdLdJGpfcNMKY8L-110" target="Wz0sJZdLdJGpfcNMKY8L-107" edge="1">
                    <mxGeometry relative="1" as="geometry"/>
                </mxCell>
                <mxCell id="Wz0sJZdLdJGpfcNMKY8L-123" style="edgeStyle=orthogonalEdgeStyle;rounded=0;orthogonalLoop=1;jettySize=auto;html=1;exitX=1;exitY=0.25;exitDx=0;exitDy=0;entryX=0;entryY=0.25;entryDx=0;entryDy=0;" parent="Wz0sJZdLdJGpfcNMKY8L-1" source="Wz0sJZdLdJGpfcNMKY8L-113" target="Wz0sJZdLdJGpfcNMKY8L-116" edge="1">
                    <mxGeometry relative="1" as="geometry"/>
                </mxCell>
                <mxCell id="Wz0sJZdLdJGpfcNMKY8L-124" style="edgeStyle=orthogonalEdgeStyle;rounded=0;orthogonalLoop=1;jettySize=auto;html=1;exitX=0;exitY=0.75;exitDx=0;exitDy=0;entryX=1;entryY=0.75;entryDx=0;entryDy=0;" parent="Wz0sJZdLdJGpfcNMKY8L-1" source="Wz0sJZdLdJGpfcNMKY8L-116" target="Wz0sJZdLdJGpfcNMKY8L-113" edge="1">
                    <mxGeometry relative="1" as="geometry"/>
                </mxCell>
            </root>
        </mxGraphModel>
    </diagram>
    <diagram id="oAsLeK_A5-5RylpgT5IQ" name="Page-3">
        <mxGraphModel dx="2062" dy="1164" grid="1" gridSize="10" guides="1" tooltips="1" connect="1" arrows="1" fold="1" page="1" pageScale="1" pageWidth="827" pageHeight="1169" math="0" shadow="0">
            <root>
                <mxCell id="o2Xksu0kAlDJFk_WlHK5-0"/>
                <mxCell id="o2Xksu0kAlDJFk_WlHK5-1" parent="o2Xksu0kAlDJFk_WlHK5-0"/>
                <mxCell id="AnFdu9Ej4A1fKqk9EQdc-0" value="" style="group;strokeWidth=2;" vertex="1" connectable="0" parent="o2Xksu0kAlDJFk_WlHK5-1">
                    <mxGeometry x="300" y="120" width="230" height="30" as="geometry"/>
                </mxCell>
                <mxCell id="AnFdu9Ej4A1fKqk9EQdc-1" value="" style="rounded=0;whiteSpace=wrap;html=1;strokeWidth=2;" vertex="1" parent="AnFdu9Ej4A1fKqk9EQdc-0">
                    <mxGeometry width="230" height="30" as="geometry"/>
                </mxCell>
                <mxCell id="AnFdu9Ej4A1fKqk9EQdc-2" value="25" style="rounded=0;whiteSpace=wrap;html=1;strokeWidth=2;" vertex="1" parent="AnFdu9Ej4A1fKqk9EQdc-0">
                    <mxGeometry width="57.5" height="30" as="geometry"/>
                </mxCell>
                <mxCell id="AnFdu9Ej4A1fKqk9EQdc-3" value="50" style="rounded=0;whiteSpace=wrap;html=1;strokeWidth=2;" vertex="1" parent="AnFdu9Ej4A1fKqk9EQdc-0">
                    <mxGeometry x="57.5" width="57.5" height="30" as="geometry"/>
                </mxCell>
                <mxCell id="AnFdu9Ej4A1fKqk9EQdc-4" value="75" style="rounded=0;whiteSpace=wrap;html=1;strokeWidth=2;" vertex="1" parent="AnFdu9Ej4A1fKqk9EQdc-0">
                    <mxGeometry x="115" width="57.5" height="30" as="geometry"/>
                </mxCell>
                <mxCell id="AnFdu9Ej4A1fKqk9EQdc-5" value="100" style="rounded=0;whiteSpace=wrap;html=1;strokeWidth=2;" vertex="1" parent="AnFdu9Ej4A1fKqk9EQdc-0">
                    <mxGeometry x="172.5" width="57.5" height="30" as="geometry"/>
                </mxCell>
                <mxCell id="AnFdu9Ej4A1fKqk9EQdc-6" style="edgeStyle=orthogonalEdgeStyle;curved=1;rounded=0;orthogonalLoop=1;jettySize=auto;html=1;entryX=1;entryY=0;entryDx=0;entryDy=0;exitX=0.25;exitY=1;exitDx=0;exitDy=0;strokeWidth=2;" edge="1" parent="o2Xksu0kAlDJFk_WlHK5-1" source="AnFdu9Ej4A1fKqk9EQdc-91" target="AnFdu9Ej4A1fKqk9EQdc-14">
                    <mxGeometry relative="1" as="geometry">
                        <Array as="points">
                            <mxPoint x="253" y="300"/>
                            <mxPoint x="190" y="300"/>
                        </Array>
                        <mxPoint x="180" y="320" as="targetPoint"/>
                    </mxGeometry>
                </mxCell>
                <mxCell id="AnFdu9Ej4A1fKqk9EQdc-7" style="edgeStyle=orthogonalEdgeStyle;curved=1;rounded=0;orthogonalLoop=1;jettySize=auto;html=1;entryX=1;entryY=0;entryDx=0;entryDy=0;exitX=0.25;exitY=1;exitDx=0;exitDy=0;strokeWidth=2;" edge="1" parent="o2Xksu0kAlDJFk_WlHK5-1" source="AnFdu9Ej4A1fKqk9EQdc-92">
                    <mxGeometry relative="1" as="geometry">
                        <mxPoint x="310" y="320" as="targetPoint"/>
                        <Array as="points">
                            <mxPoint x="310" y="250"/>
                        </Array>
                    </mxGeometry>
                </mxCell>
                <mxCell id="AnFdu9Ej4A1fKqk9EQdc-8" style="edgeStyle=orthogonalEdgeStyle;curved=1;rounded=0;orthogonalLoop=1;jettySize=auto;html=1;entryX=0;entryY=0;entryDx=0;entryDy=0;exitX=0.75;exitY=1;exitDx=0;exitDy=0;strokeWidth=2;" edge="1" parent="o2Xksu0kAlDJFk_WlHK5-1" source="AnFdu9Ej4A1fKqk9EQdc-93" target="AnFdu9Ej4A1fKqk9EQdc-27">
                    <mxGeometry relative="1" as="geometry">
                        <Array as="points">
                            <mxPoint x="378" y="310"/>
                            <mxPoint x="470" y="310"/>
                        </Array>
                        <mxPoint x="480" y="320" as="targetPoint"/>
                    </mxGeometry>
                </mxCell>
                <mxCell id="AnFdu9Ej4A1fKqk9EQdc-9" style="edgeStyle=orthogonalEdgeStyle;curved=1;rounded=0;orthogonalLoop=1;jettySize=auto;html=1;entryX=1;entryY=0;entryDx=0;entryDy=0;exitX=0.75;exitY=1;exitDx=0;exitDy=0;strokeWidth=2;" edge="1" parent="o2Xksu0kAlDJFk_WlHK5-1" source="AnFdu9Ej4A1fKqk9EQdc-94" target="AnFdu9Ej4A1fKqk9EQdc-32">
                    <mxGeometry relative="1" as="geometry">
                        <Array as="points">
                            <mxPoint x="428" y="310"/>
                            <mxPoint x="610" y="310"/>
                        </Array>
                        <mxPoint x="650" y="320" as="targetPoint"/>
                    </mxGeometry>
                </mxCell>
                <mxCell id="AnFdu9Ej4A1fKqk9EQdc-10" value="" style="group;strokeWidth=2;" vertex="1" connectable="0" parent="o2Xksu0kAlDJFk_WlHK5-1">
                    <mxGeometry x="160" y="320" width="540" height="30" as="geometry"/>
                </mxCell>
                <mxCell id="AnFdu9Ej4A1fKqk9EQdc-11" value="" style="group;opacity=60;strokeWidth=2;" vertex="1" connectable="0" parent="AnFdu9Ej4A1fKqk9EQdc-10">
                    <mxGeometry x="-30" width="120" height="30" as="geometry"/>
                </mxCell>
                <mxCell id="AnFdu9Ej4A1fKqk9EQdc-12" value="" style="rounded=0;whiteSpace=wrap;html=1;opacity=60;strokeWidth=2;" vertex="1" parent="AnFdu9Ej4A1fKqk9EQdc-11">
                    <mxGeometry width="120" height="30" as="geometry"/>
                </mxCell>
                <mxCell id="AnFdu9Ej4A1fKqk9EQdc-13" value="26" style="rounded=0;whiteSpace=wrap;html=1;opacity=60;strokeWidth=2;" vertex="1" parent="AnFdu9Ej4A1fKqk9EQdc-11">
                    <mxGeometry width="30" height="30" as="geometry"/>
                </mxCell>
                <mxCell id="AnFdu9Ej4A1fKqk9EQdc-14" value="27" style="rounded=0;whiteSpace=wrap;html=1;opacity=60;strokeWidth=2;" vertex="1" parent="AnFdu9Ej4A1fKqk9EQdc-11">
                    <mxGeometry x="30" width="30" height="30" as="geometry"/>
                </mxCell>
                <mxCell id="AnFdu9Ej4A1fKqk9EQdc-15" value="28" style="rounded=0;whiteSpace=wrap;html=1;opacity=60;strokeWidth=2;" vertex="1" parent="AnFdu9Ej4A1fKqk9EQdc-11">
                    <mxGeometry x="60" width="30" height="30" as="geometry"/>
                </mxCell>
                <mxCell id="AnFdu9Ej4A1fKqk9EQdc-16" value="29" style="rounded=0;whiteSpace=wrap;html=1;opacity=60;strokeWidth=2;" vertex="1" parent="AnFdu9Ej4A1fKqk9EQdc-11">
                    <mxGeometry x="90" width="30" height="30" as="geometry"/>
                </mxCell>
                <mxCell id="AnFdu9Ej4A1fKqk9EQdc-17" value="" style="group;opacity=60;strokeWidth=2;" vertex="1" connectable="0" parent="AnFdu9Ej4A1fKqk9EQdc-10">
                    <mxGeometry x="110" width="120" height="30" as="geometry"/>
                </mxCell>
                <mxCell id="AnFdu9Ej4A1fKqk9EQdc-18" value="" style="rounded=0;whiteSpace=wrap;html=1;opacity=60;strokeWidth=2;" vertex="1" parent="AnFdu9Ej4A1fKqk9EQdc-17">
                    <mxGeometry width="120" height="30" as="geometry"/>
                </mxCell>
                <mxCell id="AnFdu9Ej4A1fKqk9EQdc-19" value="31" style="rounded=0;whiteSpace=wrap;html=1;opacity=60;strokeWidth=2;" vertex="1" parent="AnFdu9Ej4A1fKqk9EQdc-17">
                    <mxGeometry width="30" height="30" as="geometry"/>
                </mxCell>
                <mxCell id="AnFdu9Ej4A1fKqk9EQdc-20" value="32" style="rounded=0;whiteSpace=wrap;html=1;opacity=60;strokeWidth=2;" vertex="1" parent="AnFdu9Ej4A1fKqk9EQdc-17">
                    <mxGeometry x="30" width="30" height="30" as="geometry"/>
                </mxCell>
                <mxCell id="AnFdu9Ej4A1fKqk9EQdc-21" value="33" style="rounded=0;whiteSpace=wrap;html=1;opacity=60;strokeWidth=2;" vertex="1" parent="AnFdu9Ej4A1fKqk9EQdc-17">
                    <mxGeometry x="60" width="30" height="30" as="geometry"/>
                </mxCell>
                <mxCell id="AnFdu9Ej4A1fKqk9EQdc-22" value="34" style="rounded=0;whiteSpace=wrap;html=1;opacity=60;strokeWidth=2;" vertex="1" parent="AnFdu9Ej4A1fKqk9EQdc-17">
                    <mxGeometry x="90" width="30" height="30" as="geometry"/>
                </mxCell>
                <mxCell id="AnFdu9Ej4A1fKqk9EQdc-23" value="" style="group;strokeWidth=2;" vertex="1" connectable="0" parent="AnFdu9Ej4A1fKqk9EQdc-10">
                    <mxGeometry x="250" width="120" height="30" as="geometry"/>
                </mxCell>
                <mxCell id="AnFdu9Ej4A1fKqk9EQdc-24" value="" style="rounded=0;whiteSpace=wrap;html=1;strokeWidth=2;" vertex="1" parent="AnFdu9Ej4A1fKqk9EQdc-23">
                    <mxGeometry width="120" height="30" as="geometry"/>
                </mxCell>
                <mxCell id="AnFdu9Ej4A1fKqk9EQdc-25" value="36" style="rounded=0;whiteSpace=wrap;html=1;strokeWidth=2;" vertex="1" parent="AnFdu9Ej4A1fKqk9EQdc-23">
                    <mxGeometry width="30" height="30" as="geometry"/>
                </mxCell>
                <mxCell id="AnFdu9Ej4A1fKqk9EQdc-26" value="37" style="rounded=0;whiteSpace=wrap;html=1;strokeWidth=2;" vertex="1" parent="AnFdu9Ej4A1fKqk9EQdc-23">
                    <mxGeometry x="30" width="30" height="30" as="geometry"/>
                </mxCell>
                <mxCell id="AnFdu9Ej4A1fKqk9EQdc-27" value="38" style="rounded=0;whiteSpace=wrap;html=1;strokeWidth=2;" vertex="1" parent="AnFdu9Ej4A1fKqk9EQdc-23">
                    <mxGeometry x="60" width="30" height="30" as="geometry"/>
                </mxCell>
                <mxCell id="AnFdu9Ej4A1fKqk9EQdc-28" value="39" style="rounded=0;whiteSpace=wrap;html=1;strokeWidth=2;" vertex="1" parent="AnFdu9Ej4A1fKqk9EQdc-23">
                    <mxGeometry x="90" width="30" height="30" as="geometry"/>
                </mxCell>
                <mxCell id="AnFdu9Ej4A1fKqk9EQdc-29" value="" style="group;strokeWidth=2;" vertex="1" connectable="0" parent="AnFdu9Ej4A1fKqk9EQdc-10">
                    <mxGeometry x="390" width="120" height="30" as="geometry"/>
                </mxCell>
                <mxCell id="AnFdu9Ej4A1fKqk9EQdc-30" value="" style="rounded=0;whiteSpace=wrap;html=1;strokeWidth=2;" vertex="1" parent="AnFdu9Ej4A1fKqk9EQdc-29">
                    <mxGeometry width="120" height="30" as="geometry"/>
                </mxCell>
                <mxCell id="AnFdu9Ej4A1fKqk9EQdc-31" value="41" style="rounded=0;whiteSpace=wrap;html=1;strokeWidth=2;" vertex="1" parent="AnFdu9Ej4A1fKqk9EQdc-29">
                    <mxGeometry width="30" height="30" as="geometry"/>
                </mxCell>
                <mxCell id="AnFdu9Ej4A1fKqk9EQdc-32" value="42" style="rounded=0;whiteSpace=wrap;html=1;strokeWidth=2;" vertex="1" parent="AnFdu9Ej4A1fKqk9EQdc-29">
                    <mxGeometry x="30" width="30" height="30" as="geometry"/>
                </mxCell>
                <mxCell id="AnFdu9Ej4A1fKqk9EQdc-33" value="43" style="rounded=0;whiteSpace=wrap;html=1;strokeWidth=2;" vertex="1" parent="AnFdu9Ej4A1fKqk9EQdc-29">
                    <mxGeometry x="60" width="30" height="30" as="geometry"/>
                </mxCell>
                <mxCell id="AnFdu9Ej4A1fKqk9EQdc-34" value="44" style="rounded=0;whiteSpace=wrap;html=1;strokeWidth=2;" vertex="1" parent="AnFdu9Ej4A1fKqk9EQdc-29">
                    <mxGeometry x="90" width="30" height="30" as="geometry"/>
                </mxCell>
                <mxCell id="AnFdu9Ej4A1fKqk9EQdc-35" style="edgeStyle=orthogonalEdgeStyle;curved=1;rounded=0;orthogonalLoop=1;jettySize=auto;html=1;entryX=0.5;entryY=0;entryDx=0;entryDy=0;opacity=60;strokeWidth=2;" edge="1" parent="o2Xksu0kAlDJFk_WlHK5-1" source="AnFdu9Ej4A1fKqk9EQdc-13" target="AnFdu9Ej4A1fKqk9EQdc-52">
                    <mxGeometry relative="1" as="geometry"/>
                </mxCell>
                <mxCell id="AnFdu9Ej4A1fKqk9EQdc-36" style="edgeStyle=orthogonalEdgeStyle;curved=1;rounded=0;orthogonalLoop=1;jettySize=auto;html=1;opacity=60;strokeWidth=2;" edge="1" parent="o2Xksu0kAlDJFk_WlHK5-1" source="AnFdu9Ej4A1fKqk9EQdc-14" target="AnFdu9Ej4A1fKqk9EQdc-53">
                    <mxGeometry relative="1" as="geometry"/>
                </mxCell>
                <mxCell id="AnFdu9Ej4A1fKqk9EQdc-37" style="edgeStyle=orthogonalEdgeStyle;curved=1;rounded=0;orthogonalLoop=1;jettySize=auto;html=1;entryX=0.5;entryY=0;entryDx=0;entryDy=0;opacity=60;strokeWidth=2;" edge="1" parent="o2Xksu0kAlDJFk_WlHK5-1" source="AnFdu9Ej4A1fKqk9EQdc-15" target="AnFdu9Ej4A1fKqk9EQdc-54">
                    <mxGeometry relative="1" as="geometry"/>
                </mxCell>
                <mxCell id="AnFdu9Ej4A1fKqk9EQdc-38" style="edgeStyle=orthogonalEdgeStyle;curved=1;rounded=0;orthogonalLoop=1;jettySize=auto;html=1;entryX=0.5;entryY=0;entryDx=0;entryDy=0;opacity=60;strokeWidth=2;" edge="1" parent="o2Xksu0kAlDJFk_WlHK5-1" source="AnFdu9Ej4A1fKqk9EQdc-16" target="AnFdu9Ej4A1fKqk9EQdc-55">
                    <mxGeometry relative="1" as="geometry"/>
                </mxCell>
                <mxCell id="AnFdu9Ej4A1fKqk9EQdc-39" style="edgeStyle=orthogonalEdgeStyle;curved=1;rounded=0;orthogonalLoop=1;jettySize=auto;html=1;opacity=60;strokeWidth=2;" edge="1" parent="o2Xksu0kAlDJFk_WlHK5-1" source="AnFdu9Ej4A1fKqk9EQdc-19" target="AnFdu9Ej4A1fKqk9EQdc-57">
                    <mxGeometry relative="1" as="geometry"/>
                </mxCell>
                <mxCell id="AnFdu9Ej4A1fKqk9EQdc-40" style="edgeStyle=orthogonalEdgeStyle;curved=1;rounded=0;orthogonalLoop=1;jettySize=auto;html=1;entryX=0.5;entryY=0;entryDx=0;entryDy=0;opacity=60;strokeWidth=2;" edge="1" parent="o2Xksu0kAlDJFk_WlHK5-1" source="AnFdu9Ej4A1fKqk9EQdc-20" target="AnFdu9Ej4A1fKqk9EQdc-60">
                    <mxGeometry relative="1" as="geometry"/>
                </mxCell>
                <mxCell id="AnFdu9Ej4A1fKqk9EQdc-41" style="edgeStyle=orthogonalEdgeStyle;curved=1;rounded=0;orthogonalLoop=1;jettySize=auto;html=1;entryX=0.5;entryY=0;entryDx=0;entryDy=0;opacity=60;strokeWidth=2;" edge="1" parent="o2Xksu0kAlDJFk_WlHK5-1" source="AnFdu9Ej4A1fKqk9EQdc-21" target="AnFdu9Ej4A1fKqk9EQdc-58">
                    <mxGeometry relative="1" as="geometry"/>
                </mxCell>
                <mxCell id="AnFdu9Ej4A1fKqk9EQdc-42" style="edgeStyle=orthogonalEdgeStyle;curved=1;rounded=0;orthogonalLoop=1;jettySize=auto;html=1;entryX=0.5;entryY=0;entryDx=0;entryDy=0;opacity=60;strokeWidth=2;" edge="1" parent="o2Xksu0kAlDJFk_WlHK5-1" source="AnFdu9Ej4A1fKqk9EQdc-22" target="AnFdu9Ej4A1fKqk9EQdc-59">
                    <mxGeometry relative="1" as="geometry"/>
                </mxCell>
                <mxCell id="AnFdu9Ej4A1fKqk9EQdc-43" style="edgeStyle=orthogonalEdgeStyle;curved=1;rounded=0;orthogonalLoop=1;jettySize=auto;html=1;entryX=0.5;entryY=0;entryDx=0;entryDy=0;strokeWidth=2;" edge="1" parent="o2Xksu0kAlDJFk_WlHK5-1" source="AnFdu9Ej4A1fKqk9EQdc-25" target="AnFdu9Ej4A1fKqk9EQdc-62">
                    <mxGeometry relative="1" as="geometry"/>
                </mxCell>
                <mxCell id="AnFdu9Ej4A1fKqk9EQdc-44" style="edgeStyle=orthogonalEdgeStyle;curved=1;rounded=0;orthogonalLoop=1;jettySize=auto;html=1;entryX=0.5;entryY=0;entryDx=0;entryDy=0;strokeWidth=2;" edge="1" parent="o2Xksu0kAlDJFk_WlHK5-1" source="AnFdu9Ej4A1fKqk9EQdc-26" target="AnFdu9Ej4A1fKqk9EQdc-63">
                    <mxGeometry relative="1" as="geometry"/>
                </mxCell>
                <mxCell id="AnFdu9Ej4A1fKqk9EQdc-45" style="edgeStyle=orthogonalEdgeStyle;curved=1;rounded=0;orthogonalLoop=1;jettySize=auto;html=1;entryX=0.5;entryY=0;entryDx=0;entryDy=0;strokeWidth=2;" edge="1" parent="o2Xksu0kAlDJFk_WlHK5-1" source="AnFdu9Ej4A1fKqk9EQdc-27" target="AnFdu9Ej4A1fKqk9EQdc-64">
                    <mxGeometry relative="1" as="geometry"/>
                </mxCell>
                <mxCell id="AnFdu9Ej4A1fKqk9EQdc-46" style="edgeStyle=orthogonalEdgeStyle;curved=1;rounded=0;orthogonalLoop=1;jettySize=auto;html=1;entryX=0.5;entryY=0;entryDx=0;entryDy=0;strokeWidth=2;" edge="1" parent="o2Xksu0kAlDJFk_WlHK5-1" source="AnFdu9Ej4A1fKqk9EQdc-28" target="AnFdu9Ej4A1fKqk9EQdc-65">
                    <mxGeometry relative="1" as="geometry"/>
                </mxCell>
                <mxCell id="AnFdu9Ej4A1fKqk9EQdc-47" style="edgeStyle=orthogonalEdgeStyle;curved=1;rounded=0;orthogonalLoop=1;jettySize=auto;html=1;entryX=0.5;entryY=0;entryDx=0;entryDy=0;strokeWidth=2;" edge="1" parent="o2Xksu0kAlDJFk_WlHK5-1" source="AnFdu9Ej4A1fKqk9EQdc-31" target="AnFdu9Ej4A1fKqk9EQdc-67">
                    <mxGeometry relative="1" as="geometry"/>
                </mxCell>
                <mxCell id="AnFdu9Ej4A1fKqk9EQdc-48" style="edgeStyle=orthogonalEdgeStyle;curved=1;rounded=0;orthogonalLoop=1;jettySize=auto;html=1;strokeWidth=2;" edge="1" parent="o2Xksu0kAlDJFk_WlHK5-1" source="AnFdu9Ej4A1fKqk9EQdc-32" target="AnFdu9Ej4A1fKqk9EQdc-68">
                    <mxGeometry relative="1" as="geometry"/>
                </mxCell>
                <mxCell id="AnFdu9Ej4A1fKqk9EQdc-49" style="edgeStyle=orthogonalEdgeStyle;curved=1;rounded=0;orthogonalLoop=1;jettySize=auto;html=1;entryX=0.5;entryY=0;entryDx=0;entryDy=0;strokeWidth=2;" edge="1" parent="o2Xksu0kAlDJFk_WlHK5-1" source="AnFdu9Ej4A1fKqk9EQdc-33" target="AnFdu9Ej4A1fKqk9EQdc-69">
                    <mxGeometry relative="1" as="geometry"/>
                </mxCell>
                <mxCell id="AnFdu9Ej4A1fKqk9EQdc-50" style="edgeStyle=orthogonalEdgeStyle;curved=1;rounded=0;orthogonalLoop=1;jettySize=auto;html=1;entryX=0.5;entryY=0;entryDx=0;entryDy=0;strokeWidth=2;" edge="1" parent="o2Xksu0kAlDJFk_WlHK5-1" source="AnFdu9Ej4A1fKqk9EQdc-34" target="AnFdu9Ej4A1fKqk9EQdc-70">
                    <mxGeometry relative="1" as="geometry"/>
                </mxCell>
                <mxCell id="AnFdu9Ej4A1fKqk9EQdc-51" value="" style="group;opacity=60;strokeWidth=2;" vertex="1" connectable="0" parent="o2Xksu0kAlDJFk_WlHK5-1">
                    <mxGeometry x="130" y="370" width="120" height="30" as="geometry"/>
                </mxCell>
                <mxCell id="AnFdu9Ej4A1fKqk9EQdc-52" value="26" style="shape=image;html=1;verticalAlign=top;verticalLabelPosition=bottom;labelBackgroundColor=#ffffff;imageAspect=0;aspect=fixed;image=https://cdn0.iconfinder.com/data/icons/blockchain-classic/270/ChainLink-128.png;labelPosition=center;align=center;labelBorderColor=none;imageBorder=none;opacity=60;strokeWidth=2;" vertex="1" parent="AnFdu9Ej4A1fKqk9EQdc-51">
                    <mxGeometry width="30" height="30" as="geometry"/>
                </mxCell>
                <mxCell id="AnFdu9Ej4A1fKqk9EQdc-53" value="27" style="shape=image;html=1;verticalAlign=top;verticalLabelPosition=bottom;labelBackgroundColor=#ffffff;imageAspect=0;aspect=fixed;image=https://cdn0.iconfinder.com/data/icons/blockchain-classic/270/ChainLink-128.png;labelPosition=center;align=center;spacingBottom=7;opacity=60;strokeWidth=2;" vertex="1" parent="AnFdu9Ej4A1fKqk9EQdc-51">
                    <mxGeometry x="30" width="30" height="30" as="geometry"/>
                </mxCell>
                <mxCell id="AnFdu9Ej4A1fKqk9EQdc-54" value="28" style="shape=image;html=1;verticalAlign=top;verticalLabelPosition=bottom;labelBackgroundColor=#ffffff;imageAspect=0;aspect=fixed;image=https://cdn0.iconfinder.com/data/icons/blockchain-classic/270/ChainLink-128.png;labelPosition=center;align=center;opacity=60;strokeWidth=2;" vertex="1" parent="AnFdu9Ej4A1fKqk9EQdc-51">
                    <mxGeometry x="60" width="30" height="30" as="geometry"/>
                </mxCell>
                <mxCell id="AnFdu9Ej4A1fKqk9EQdc-55" value="29" style="shape=image;html=1;verticalAlign=top;verticalLabelPosition=bottom;labelBackgroundColor=#ffffff;imageAspect=0;aspect=fixed;image=https://cdn0.iconfinder.com/data/icons/blockchain-classic/270/ChainLink-128.png;labelPosition=center;align=center;spacingBottom=7;opacity=60;strokeWidth=2;" vertex="1" parent="AnFdu9Ej4A1fKqk9EQdc-51">
                    <mxGeometry x="90" width="30" height="30" as="geometry"/>
                </mxCell>
                <mxCell id="AnFdu9Ej4A1fKqk9EQdc-56" value="" style="group;opacity=60;strokeWidth=2;" vertex="1" connectable="0" parent="o2Xksu0kAlDJFk_WlHK5-1">
                    <mxGeometry x="270" y="370" width="120" height="30" as="geometry"/>
                </mxCell>
                <mxCell id="AnFdu9Ej4A1fKqk9EQdc-57" value="31" style="shape=image;html=1;verticalAlign=top;verticalLabelPosition=bottom;labelBackgroundColor=#ffffff;imageAspect=0;aspect=fixed;image=https://cdn0.iconfinder.com/data/icons/blockchain-classic/270/ChainLink-128.png;labelPosition=center;align=center;opacity=60;strokeWidth=2;" vertex="1" parent="AnFdu9Ej4A1fKqk9EQdc-56">
                    <mxGeometry width="30" height="30" as="geometry"/>
                </mxCell>
                <mxCell id="AnFdu9Ej4A1fKqk9EQdc-58" value="33" style="shape=image;html=1;verticalAlign=top;verticalLabelPosition=bottom;labelBackgroundColor=#ffffff;imageAspect=0;aspect=fixed;image=https://cdn0.iconfinder.com/data/icons/blockchain-classic/270/ChainLink-128.png;labelPosition=center;align=center;spacingBottom=7;opacity=60;strokeWidth=2;" vertex="1" parent="AnFdu9Ej4A1fKqk9EQdc-56">
                    <mxGeometry x="60" width="30" height="30" as="geometry"/>
                </mxCell>
                <mxCell id="AnFdu9Ej4A1fKqk9EQdc-59" value="34" style="shape=image;html=1;verticalAlign=top;verticalLabelPosition=bottom;labelBackgroundColor=#ffffff;imageAspect=0;aspect=fixed;image=https://cdn0.iconfinder.com/data/icons/blockchain-classic/270/ChainLink-128.png;labelPosition=center;align=center;spacingBottom=7;opacity=60;strokeWidth=2;" vertex="1" parent="AnFdu9Ej4A1fKqk9EQdc-56">
                    <mxGeometry x="90" width="30" height="30" as="geometry"/>
                </mxCell>
                <mxCell id="AnFdu9Ej4A1fKqk9EQdc-60" value="32" style="shape=image;html=1;verticalAlign=top;verticalLabelPosition=bottom;labelBackgroundColor=#ffffff;imageAspect=0;aspect=fixed;image=https://cdn0.iconfinder.com/data/icons/blockchain-classic/270/ChainLink-128.png;labelPosition=center;align=center;spacingBottom=7;opacity=60;strokeWidth=2;" vertex="1" parent="AnFdu9Ej4A1fKqk9EQdc-56">
                    <mxGeometry x="30" width="30" height="30" as="geometry"/>
                </mxCell>
                <mxCell id="AnFdu9Ej4A1fKqk9EQdc-61" value="" style="group;strokeWidth=2;" vertex="1" connectable="0" parent="o2Xksu0kAlDJFk_WlHK5-1">
                    <mxGeometry x="410" y="370" width="120" height="30" as="geometry"/>
                </mxCell>
                <mxCell id="AnFdu9Ej4A1fKqk9EQdc-62" value="36" style="shape=image;html=1;verticalAlign=top;verticalLabelPosition=bottom;labelBackgroundColor=#ffffff;imageAspect=0;aspect=fixed;image=https://cdn0.iconfinder.com/data/icons/blockchain-classic/270/ChainLink-128.png;labelPosition=center;align=center;opacity=60;strokeWidth=2;" vertex="1" parent="AnFdu9Ej4A1fKqk9EQdc-61">
                    <mxGeometry width="30" height="30" as="geometry"/>
                </mxCell>
                <mxCell id="AnFdu9Ej4A1fKqk9EQdc-63" value="37" style="shape=image;html=1;verticalAlign=top;verticalLabelPosition=bottom;labelBackgroundColor=#ffffff;imageAspect=0;aspect=fixed;image=https://cdn0.iconfinder.com/data/icons/blockchain-classic/270/ChainLink-128.png;labelPosition=center;align=center;spacingBottom=7;opacity=60;strokeWidth=2;" vertex="1" parent="AnFdu9Ej4A1fKqk9EQdc-61">
                    <mxGeometry x="30" width="30" height="30" as="geometry"/>
                </mxCell>
                <mxCell id="AnFdu9Ej4A1fKqk9EQdc-64" value="38" style="shape=image;html=1;verticalAlign=top;verticalLabelPosition=bottom;labelBackgroundColor=#ffffff;imageAspect=0;aspect=fixed;image=https://cdn0.iconfinder.com/data/icons/blockchain-classic/270/ChainLink-128.png;labelPosition=center;align=center;imageBorder=none;strokeWidth=2;imageBackground=none;" vertex="1" parent="AnFdu9Ej4A1fKqk9EQdc-61">
                    <mxGeometry x="60" width="30" height="30" as="geometry"/>
                </mxCell>
                <mxCell id="AnFdu9Ej4A1fKqk9EQdc-65" value="39" style="shape=image;html=1;verticalAlign=top;verticalLabelPosition=bottom;labelBackgroundColor=#ffffff;imageAspect=0;aspect=fixed;image=https://cdn0.iconfinder.com/data/icons/blockchain-classic/270/ChainLink-128.png;labelPosition=center;align=center;spacingBottom=7;imageBorder=none;strokeWidth=2;imageBackground=none;" vertex="1" parent="AnFdu9Ej4A1fKqk9EQdc-61">
                    <mxGeometry x="90" width="30" height="30" as="geometry"/>
                </mxCell>
                <mxCell id="AnFdu9Ej4A1fKqk9EQdc-66" value="" style="group;strokeWidth=2;" vertex="1" connectable="0" parent="o2Xksu0kAlDJFk_WlHK5-1">
                    <mxGeometry x="550" y="370" width="120" height="30" as="geometry"/>
                </mxCell>
                <mxCell id="AnFdu9Ej4A1fKqk9EQdc-67" value="41" style="shape=image;html=1;verticalAlign=top;verticalLabelPosition=bottom;labelBackgroundColor=#ffffff;imageAspect=0;aspect=fixed;image=https://cdn0.iconfinder.com/data/icons/blockchain-classic/270/ChainLink-128.png;labelPosition=center;align=center;imageBorder=none;strokeWidth=2;imageBackground=none;" vertex="1" parent="AnFdu9Ej4A1fKqk9EQdc-66">
                    <mxGeometry width="30" height="30" as="geometry"/>
                </mxCell>
                <mxCell id="AnFdu9Ej4A1fKqk9EQdc-68" value="42" style="shape=image;html=1;verticalAlign=top;verticalLabelPosition=bottom;labelBackgroundColor=#ffffff;imageAspect=0;aspect=fixed;image=https://cdn0.iconfinder.com/data/icons/blockchain-classic/270/ChainLink-128.png;labelPosition=center;align=center;spacingBottom=7;imageBackground=none;imageBorder=none;strokeWidth=2;" vertex="1" parent="AnFdu9Ej4A1fKqk9EQdc-66">
                    <mxGeometry x="30" width="30" height="30" as="geometry"/>
                </mxCell>
                <mxCell id="AnFdu9Ej4A1fKqk9EQdc-69" value="43" style="shape=image;html=1;verticalAlign=top;verticalLabelPosition=bottom;labelBackgroundColor=#ffffff;imageAspect=0;aspect=fixed;image=https://cdn0.iconfinder.com/data/icons/blockchain-classic/270/ChainLink-128.png;labelPosition=center;align=center;opacity=60;strokeWidth=2;" vertex="1" parent="AnFdu9Ej4A1fKqk9EQdc-66">
                    <mxGeometry x="60" width="30" height="30" as="geometry"/>
                </mxCell>
                <mxCell id="AnFdu9Ej4A1fKqk9EQdc-70" value="44" style="shape=image;html=1;verticalAlign=top;verticalLabelPosition=bottom;labelBackgroundColor=#ffffff;imageAspect=0;aspect=fixed;image=https://cdn0.iconfinder.com/data/icons/blockchain-classic/270/ChainLink-128.png;labelPosition=center;align=center;spacingBottom=7;opacity=60;strokeWidth=2;" vertex="1" parent="AnFdu9Ej4A1fKqk9EQdc-66">
                    <mxGeometry x="90" width="30" height="30" as="geometry"/>
                </mxCell>
                <mxCell id="AnFdu9Ej4A1fKqk9EQdc-71" value="25" style="shape=image;html=1;verticalAlign=top;verticalLabelPosition=bottom;labelBackgroundColor=#ffffff;imageAspect=0;aspect=fixed;image=https://cdn0.iconfinder.com/data/icons/blockchain-classic/270/ChainLink-128.png;labelPosition=center;align=center;labelBorderColor=none;imageBorder=none;spacing=0;spacingBottom=0;spacingTop=-4;opacity=60;strokeWidth=2;" vertex="1" parent="o2Xksu0kAlDJFk_WlHK5-1">
                    <mxGeometry x="320" y="160" width="30" height="30" as="geometry"/>
                </mxCell>
                <mxCell id="AnFdu9Ej4A1fKqk9EQdc-72" value="50" style="shape=image;html=1;verticalAlign=top;verticalLabelPosition=bottom;labelBackgroundColor=#ffffff;imageAspect=0;aspect=fixed;image=https://cdn0.iconfinder.com/data/icons/blockchain-classic/270/ChainLink-128.png;labelPosition=center;align=center;spacingBottom=0;spacing=0;spacingTop=-4;opacity=60;strokeWidth=2;" vertex="1" parent="o2Xksu0kAlDJFk_WlHK5-1">
                    <mxGeometry x="380" y="160" width="30" height="30" as="geometry"/>
                </mxCell>
                <mxCell id="AnFdu9Ej4A1fKqk9EQdc-73" value="75" style="shape=image;html=1;verticalAlign=top;verticalLabelPosition=bottom;labelBackgroundColor=#ffffff;imageAspect=0;aspect=fixed;image=https://cdn0.iconfinder.com/data/icons/blockchain-classic/270/ChainLink-128.png;labelPosition=center;align=center;spacing=0;spacingBottom=0;spacingTop=-4;opacity=60;strokeWidth=2;" vertex="1" parent="o2Xksu0kAlDJFk_WlHK5-1">
                    <mxGeometry x="422" y="160" width="30" height="30" as="geometry"/>
                </mxCell>
                <mxCell id="AnFdu9Ej4A1fKqk9EQdc-74" value="100" style="shape=image;html=1;verticalAlign=top;verticalLabelPosition=bottom;labelBackgroundColor=#ffffff;imageAspect=0;aspect=fixed;image=https://cdn0.iconfinder.com/data/icons/blockchain-classic/270/ChainLink-128.png;labelPosition=center;align=center;spacingBottom=0;spacing=0;spacingTop=-4;opacity=60;strokeWidth=2;" vertex="1" parent="o2Xksu0kAlDJFk_WlHK5-1">
                    <mxGeometry x="480" y="160" width="30" height="30" as="geometry"/>
                </mxCell>
                <mxCell id="AnFdu9Ej4A1fKqk9EQdc-75" style="edgeStyle=orthogonalEdgeStyle;rounded=0;orthogonalLoop=1;jettySize=auto;html=1;exitX=0.75;exitY=1;exitDx=0;exitDy=0;entryX=0.75;entryY=0;entryDx=0;entryDy=0;strokeWidth=2;" edge="1" parent="o2Xksu0kAlDJFk_WlHK5-1" source="AnFdu9Ej4A1fKqk9EQdc-2" target="AnFdu9Ej4A1fKqk9EQdc-71">
                    <mxGeometry relative="1" as="geometry"/>
                </mxCell>
                <mxCell id="AnFdu9Ej4A1fKqk9EQdc-76" style="edgeStyle=orthogonalEdgeStyle;rounded=0;orthogonalLoop=1;jettySize=auto;html=1;exitX=0.75;exitY=1;exitDx=0;exitDy=0;entryX=0.75;entryY=0;entryDx=0;entryDy=0;strokeWidth=2;" edge="1" parent="o2Xksu0kAlDJFk_WlHK5-1" source="AnFdu9Ej4A1fKqk9EQdc-3" target="AnFdu9Ej4A1fKqk9EQdc-72">
                    <mxGeometry relative="1" as="geometry"/>
                </mxCell>
                <mxCell id="AnFdu9Ej4A1fKqk9EQdc-77" style="edgeStyle=orthogonalEdgeStyle;rounded=0;orthogonalLoop=1;jettySize=auto;html=1;exitX=0.25;exitY=1;exitDx=0;exitDy=0;entryX=1;entryY=0;entryDx=0;entryDy=0;curved=1;strokeWidth=2;" edge="1" parent="o2Xksu0kAlDJFk_WlHK5-1" source="AnFdu9Ej4A1fKqk9EQdc-2" target="AnFdu9Ej4A1fKqk9EQdc-86">
                    <mxGeometry relative="1" as="geometry"/>
                </mxCell>
                <mxCell id="AnFdu9Ej4A1fKqk9EQdc-78" style="rounded=0;orthogonalLoop=1;jettySize=auto;html=1;exitX=0.25;exitY=1;exitDx=0;exitDy=0;entryX=0.25;entryY=0;entryDx=0;entryDy=0;strokeWidth=2;" edge="1" parent="o2Xksu0kAlDJFk_WlHK5-1" source="AnFdu9Ej4A1fKqk9EQdc-4" target="AnFdu9Ej4A1fKqk9EQdc-73">
                    <mxGeometry relative="1" as="geometry"/>
                </mxCell>
                <mxCell id="AnFdu9Ej4A1fKqk9EQdc-79" style="edgeStyle=orthogonalEdgeStyle;curved=1;rounded=0;orthogonalLoop=1;jettySize=auto;html=1;exitX=0.75;exitY=1;exitDx=0;exitDy=0;entryX=0;entryY=0;entryDx=0;entryDy=0;strokeWidth=2;" edge="1" parent="o2Xksu0kAlDJFk_WlHK5-1" source="AnFdu9Ej4A1fKqk9EQdc-5" target="AnFdu9Ej4A1fKqk9EQdc-105">
                    <mxGeometry relative="1" as="geometry"/>
                </mxCell>
                <mxCell id="AnFdu9Ej4A1fKqk9EQdc-80" style="edgeStyle=orthogonalEdgeStyle;curved=1;rounded=0;orthogonalLoop=1;jettySize=auto;html=1;exitX=0.25;exitY=1;exitDx=0;exitDy=0;entryX=0.25;entryY=0;entryDx=0;entryDy=0;strokeWidth=2;" edge="1" parent="o2Xksu0kAlDJFk_WlHK5-1" source="AnFdu9Ej4A1fKqk9EQdc-5" target="AnFdu9Ej4A1fKqk9EQdc-74">
                    <mxGeometry relative="1" as="geometry"/>
                </mxCell>
                <mxCell id="AnFdu9Ej4A1fKqk9EQdc-81" style="edgeStyle=orthogonalEdgeStyle;curved=1;rounded=0;orthogonalLoop=1;jettySize=auto;html=1;exitX=0.25;exitY=1;exitDx=0;exitDy=0;entryX=1;entryY=0;entryDx=0;entryDy=0;strokeWidth=2;" edge="1" parent="o2Xksu0kAlDJFk_WlHK5-1" source="AnFdu9Ej4A1fKqk9EQdc-3" target="AnFdu9Ej4A1fKqk9EQdc-92">
                    <mxGeometry relative="1" as="geometry">
                        <Array as="points">
                            <mxPoint x="372" y="200"/>
                            <mxPoint x="340" y="200"/>
                        </Array>
                    </mxGeometry>
                </mxCell>
                <mxCell id="AnFdu9Ej4A1fKqk9EQdc-82" value="30" style="shape=image;html=1;verticalAlign=top;verticalLabelPosition=bottom;labelBackgroundColor=#ffffff;imageAspect=0;aspect=fixed;image=https://cdn0.iconfinder.com/data/icons/blockchain-classic/270/ChainLink-128.png;labelPosition=center;align=center;labelBorderColor=none;imageBorder=none;spacing=0;spacingBottom=0;spacingTop=-4;opacity=60;strokeWidth=2;" vertex="1" parent="o2Xksu0kAlDJFk_WlHK5-1">
                    <mxGeometry x="260" y="260" width="30" height="30" as="geometry"/>
                </mxCell>
                <mxCell id="AnFdu9Ej4A1fKqk9EQdc-83" value="" style="group;opacity=60;strokeWidth=2;" vertex="1" connectable="0" parent="o2Xksu0kAlDJFk_WlHK5-1">
                    <mxGeometry x="110" y="220" width="120" height="30" as="geometry"/>
                </mxCell>
                <mxCell id="AnFdu9Ej4A1fKqk9EQdc-84" value="" style="rounded=0;whiteSpace=wrap;html=1;opacity=60;strokeWidth=2;" vertex="1" parent="AnFdu9Ej4A1fKqk9EQdc-83">
                    <mxGeometry width="120" height="30" as="geometry"/>
                </mxCell>
                <mxCell id="AnFdu9Ej4A1fKqk9EQdc-85" value="6" style="rounded=0;whiteSpace=wrap;html=1;opacity=60;strokeWidth=2;" vertex="1" parent="AnFdu9Ej4A1fKqk9EQdc-83">
                    <mxGeometry width="30" height="30" as="geometry"/>
                </mxCell>
                <mxCell id="AnFdu9Ej4A1fKqk9EQdc-86" value="12" style="rounded=0;whiteSpace=wrap;html=1;opacity=60;strokeWidth=2;" vertex="1" parent="AnFdu9Ej4A1fKqk9EQdc-83">
                    <mxGeometry x="30" width="30" height="30" as="geometry"/>
                </mxCell>
                <mxCell id="AnFdu9Ej4A1fKqk9EQdc-87" value="18" style="rounded=0;whiteSpace=wrap;html=1;opacity=60;strokeWidth=2;" vertex="1" parent="AnFdu9Ej4A1fKqk9EQdc-83">
                    <mxGeometry x="60" width="30" height="30" as="geometry"/>
                </mxCell>
                <mxCell id="AnFdu9Ej4A1fKqk9EQdc-88" value="25" style="rounded=0;whiteSpace=wrap;html=1;opacity=60;strokeWidth=2;" vertex="1" parent="AnFdu9Ej4A1fKqk9EQdc-83">
                    <mxGeometry x="90" width="30" height="30" as="geometry"/>
                </mxCell>
                <mxCell id="AnFdu9Ej4A1fKqk9EQdc-89" value="" style="group;strokeWidth=2;" vertex="1" connectable="0" parent="o2Xksu0kAlDJFk_WlHK5-1">
                    <mxGeometry x="240" y="220" width="200" height="30" as="geometry"/>
                </mxCell>
                <mxCell id="AnFdu9Ej4A1fKqk9EQdc-90" value="" style="rounded=0;whiteSpace=wrap;html=1;strokeWidth=2;" vertex="1" parent="AnFdu9Ej4A1fKqk9EQdc-89">
                    <mxGeometry width="200" height="30" as="geometry"/>
                </mxCell>
                <mxCell id="AnFdu9Ej4A1fKqk9EQdc-91" value="30" style="rounded=0;whiteSpace=wrap;html=1;strokeWidth=2;" vertex="1" parent="AnFdu9Ej4A1fKqk9EQdc-89">
                    <mxGeometry width="50" height="30" as="geometry"/>
                </mxCell>
                <mxCell id="AnFdu9Ej4A1fKqk9EQdc-92" value="35" style="rounded=0;whiteSpace=wrap;html=1;strokeWidth=2;" vertex="1" parent="AnFdu9Ej4A1fKqk9EQdc-89">
                    <mxGeometry x="50" width="50" height="30" as="geometry"/>
                </mxCell>
                <mxCell id="AnFdu9Ej4A1fKqk9EQdc-93" value="40" style="rounded=0;whiteSpace=wrap;html=1;strokeWidth=2;" vertex="1" parent="AnFdu9Ej4A1fKqk9EQdc-89">
                    <mxGeometry x="100" width="50" height="30" as="geometry"/>
                </mxCell>
                <mxCell id="AnFdu9Ej4A1fKqk9EQdc-94" value="45" style="rounded=0;whiteSpace=wrap;html=1;strokeWidth=2;" vertex="1" parent="AnFdu9Ej4A1fKqk9EQdc-89">
                    <mxGeometry x="150" width="50" height="30" as="geometry"/>
                </mxCell>
                <mxCell id="AnFdu9Ej4A1fKqk9EQdc-95" value="" style="group;opacity=60;strokeWidth=2;" vertex="1" connectable="0" parent="o2Xksu0kAlDJFk_WlHK5-1">
                    <mxGeometry x="460" y="220" width="120" height="30" as="geometry"/>
                </mxCell>
                <mxCell id="AnFdu9Ej4A1fKqk9EQdc-96" value="" style="rounded=0;whiteSpace=wrap;html=1;opacity=60;strokeWidth=2;" vertex="1" parent="AnFdu9Ej4A1fKqk9EQdc-95">
                    <mxGeometry width="120" height="30" as="geometry"/>
                </mxCell>
                <mxCell id="AnFdu9Ej4A1fKqk9EQdc-97" value="56" style="rounded=0;whiteSpace=wrap;html=1;opacity=60;strokeWidth=2;" vertex="1" parent="AnFdu9Ej4A1fKqk9EQdc-95">
                    <mxGeometry width="30" height="30" as="geometry"/>
                </mxCell>
                <mxCell id="AnFdu9Ej4A1fKqk9EQdc-98" value="62" style="rounded=0;whiteSpace=wrap;html=1;opacity=60;strokeWidth=2;" vertex="1" parent="AnFdu9Ej4A1fKqk9EQdc-95">
                    <mxGeometry x="30" width="30" height="30" as="geometry"/>
                </mxCell>
                <mxCell id="AnFdu9Ej4A1fKqk9EQdc-99" value="68" style="rounded=0;whiteSpace=wrap;html=1;opacity=60;strokeWidth=2;" vertex="1" parent="AnFdu9Ej4A1fKqk9EQdc-95">
                    <mxGeometry x="60" width="30" height="30" as="geometry"/>
                </mxCell>
                <mxCell id="AnFdu9Ej4A1fKqk9EQdc-100" value="75" style="rounded=0;whiteSpace=wrap;html=1;opacity=60;strokeWidth=2;" vertex="1" parent="AnFdu9Ej4A1fKqk9EQdc-95">
                    <mxGeometry x="90" width="30" height="30" as="geometry"/>
                </mxCell>
                <mxCell id="AnFdu9Ej4A1fKqk9EQdc-101" value="" style="group;opacity=60;strokeWidth=2;" vertex="1" connectable="0" parent="o2Xksu0kAlDJFk_WlHK5-1">
                    <mxGeometry x="600" y="220" width="120" height="30" as="geometry"/>
                </mxCell>
                <mxCell id="AnFdu9Ej4A1fKqk9EQdc-102" value="" style="rounded=0;whiteSpace=wrap;html=1;opacity=60;strokeWidth=2;" vertex="1" parent="AnFdu9Ej4A1fKqk9EQdc-101">
                    <mxGeometry width="120" height="30" as="geometry"/>
                </mxCell>
                <mxCell id="AnFdu9Ej4A1fKqk9EQdc-103" value="81" style="rounded=0;whiteSpace=wrap;html=1;opacity=60;strokeWidth=2;" vertex="1" parent="AnFdu9Ej4A1fKqk9EQdc-101">
                    <mxGeometry width="30" height="30" as="geometry"/>
                </mxCell>
                <mxCell id="AnFdu9Ej4A1fKqk9EQdc-104" value="87" style="rounded=0;whiteSpace=wrap;html=1;opacity=60;strokeWidth=2;" vertex="1" parent="AnFdu9Ej4A1fKqk9EQdc-101">
                    <mxGeometry x="30" width="30" height="30" as="geometry"/>
                </mxCell>
                <mxCell id="AnFdu9Ej4A1fKqk9EQdc-105" value="93" style="rounded=0;whiteSpace=wrap;html=1;opacity=60;strokeWidth=2;" vertex="1" parent="AnFdu9Ej4A1fKqk9EQdc-101">
                    <mxGeometry x="60" width="30" height="30" as="geometry"/>
                </mxCell>
                <mxCell id="AnFdu9Ej4A1fKqk9EQdc-106" value="100" style="rounded=0;whiteSpace=wrap;html=1;opacity=60;strokeWidth=2;" vertex="1" parent="AnFdu9Ej4A1fKqk9EQdc-101">
                    <mxGeometry x="90" width="30" height="30" as="geometry"/>
                </mxCell>
                <mxCell id="AnFdu9Ej4A1fKqk9EQdc-107" value="35" style="shape=image;html=1;verticalAlign=top;verticalLabelPosition=bottom;labelBackgroundColor=#ffffff;imageAspect=0;aspect=fixed;image=https://cdn0.iconfinder.com/data/icons/blockchain-classic/270/ChainLink-128.png;labelPosition=center;align=center;labelBorderColor=none;imageBorder=none;spacing=0;spacingBottom=0;spacingTop=-4;opacity=60;strokeWidth=2;" vertex="1" parent="o2Xksu0kAlDJFk_WlHK5-1">
                    <mxGeometry x="310" y="260" width="30" height="30" as="geometry"/>
                </mxCell>
                <mxCell id="AnFdu9Ej4A1fKqk9EQdc-108" value="40" style="shape=image;html=1;verticalAlign=top;verticalLabelPosition=bottom;labelBackgroundColor=#ffffff;imageAspect=0;aspect=fixed;image=https://cdn0.iconfinder.com/data/icons/blockchain-classic/270/ChainLink-128.png;labelPosition=center;align=center;labelBorderColor=none;imageBorder=none;spacing=0;spacingBottom=0;spacingTop=-4;opacity=60;strokeWidth=2;" vertex="1" parent="o2Xksu0kAlDJFk_WlHK5-1">
                    <mxGeometry x="350" y="260" width="30" height="30" as="geometry"/>
                </mxCell>
                <mxCell id="AnFdu9Ej4A1fKqk9EQdc-109" value="45" style="shape=image;html=1;verticalAlign=top;verticalLabelPosition=bottom;labelBackgroundColor=#ffffff;imageAspect=0;aspect=fixed;image=https://cdn0.iconfinder.com/data/icons/blockchain-classic/270/ChainLink-128.png;labelPosition=center;align=center;labelBorderColor=none;imageBorder=none;spacing=0;spacingBottom=0;spacingTop=-4;opacity=60;strokeWidth=2;" vertex="1" parent="o2Xksu0kAlDJFk_WlHK5-1">
                    <mxGeometry x="400" y="260" width="30" height="30" as="geometry"/>
                </mxCell>
                <mxCell id="AnFdu9Ej4A1fKqk9EQdc-110" style="edgeStyle=orthogonalEdgeStyle;curved=1;rounded=0;orthogonalLoop=1;jettySize=auto;html=1;exitX=0.75;exitY=1;exitDx=0;exitDy=0;entryX=0.5;entryY=0;entryDx=0;entryDy=0;strokeWidth=2;" edge="1" parent="o2Xksu0kAlDJFk_WlHK5-1" source="AnFdu9Ej4A1fKqk9EQdc-91" target="AnFdu9Ej4A1fKqk9EQdc-82">
                    <mxGeometry relative="1" as="geometry"/>
                </mxCell>
                <mxCell id="AnFdu9Ej4A1fKqk9EQdc-111" style="edgeStyle=orthogonalEdgeStyle;curved=1;rounded=0;orthogonalLoop=1;jettySize=auto;html=1;exitX=0.75;exitY=1;exitDx=0;exitDy=0;entryX=0.5;entryY=0;entryDx=0;entryDy=0;strokeWidth=2;" edge="1" parent="o2Xksu0kAlDJFk_WlHK5-1" source="AnFdu9Ej4A1fKqk9EQdc-92" target="AnFdu9Ej4A1fKqk9EQdc-107">
                    <mxGeometry relative="1" as="geometry"/>
                </mxCell>
                <mxCell id="AnFdu9Ej4A1fKqk9EQdc-112" style="edgeStyle=orthogonalEdgeStyle;curved=1;rounded=0;orthogonalLoop=1;jettySize=auto;html=1;exitX=0.75;exitY=1;exitDx=0;exitDy=0;entryX=0.75;entryY=0;entryDx=0;entryDy=0;strokeWidth=2;" edge="1" parent="o2Xksu0kAlDJFk_WlHK5-1" source="AnFdu9Ej4A1fKqk9EQdc-93" target="AnFdu9Ej4A1fKqk9EQdc-108">
                    <mxGeometry relative="1" as="geometry"/>
                </mxCell>
                <mxCell id="AnFdu9Ej4A1fKqk9EQdc-113" style="edgeStyle=orthogonalEdgeStyle;curved=1;rounded=0;orthogonalLoop=1;jettySize=auto;html=1;exitX=0.75;exitY=1;exitDx=0;exitDy=0;entryX=0;entryY=0;entryDx=0;entryDy=0;strokeWidth=2;" edge="1" parent="o2Xksu0kAlDJFk_WlHK5-1" source="AnFdu9Ej4A1fKqk9EQdc-4" target="AnFdu9Ej4A1fKqk9EQdc-99">
                    <mxGeometry relative="1" as="geometry">
                        <Array as="points">
                            <mxPoint x="458" y="210"/>
                            <mxPoint x="520" y="210"/>
                        </Array>
                    </mxGeometry>
                </mxCell>
                <mxCell id="AnFdu9Ej4A1fKqk9EQdc-114" value="" style="group;spacing=0;spacingTop=0;spacingBottom=-4;opacity=60;strokeWidth=2;" vertex="1" connectable="0" parent="o2Xksu0kAlDJFk_WlHK5-1">
                    <mxGeometry x="110" y="260" width="120" height="30" as="geometry"/>
                </mxCell>
                <mxCell id="AnFdu9Ej4A1fKqk9EQdc-115" value="6" style="shape=image;html=1;verticalAlign=top;verticalLabelPosition=bottom;labelBackgroundColor=#ffffff;imageAspect=0;aspect=fixed;image=https://cdn0.iconfinder.com/data/icons/blockchain-classic/270/ChainLink-128.png;labelPosition=center;align=center;labelBorderColor=none;imageBorder=none;spacing=0;spacingBottom=0;spacingTop=-4;imageBackground=#ffffff;opacity=60;strokeWidth=2;" vertex="1" parent="AnFdu9Ej4A1fKqk9EQdc-114">
                    <mxGeometry width="30" height="30" as="geometry"/>
                </mxCell>
                <mxCell id="AnFdu9Ej4A1fKqk9EQdc-116" value="12" style="shape=image;html=1;verticalAlign=top;verticalLabelPosition=bottom;labelBackgroundColor=#ffffff;imageAspect=0;aspect=fixed;image=https://cdn0.iconfinder.com/data/icons/blockchain-classic/270/ChainLink-128.png;labelPosition=center;align=center;spacingBottom=0;spacing=0;spacingTop=-4;opacity=60;strokeWidth=2;" vertex="1" parent="AnFdu9Ej4A1fKqk9EQdc-114">
                    <mxGeometry x="30" width="30" height="30" as="geometry"/>
                </mxCell>
                <mxCell id="AnFdu9Ej4A1fKqk9EQdc-117" value="18" style="shape=image;html=1;verticalAlign=top;verticalLabelPosition=bottom;labelBackgroundColor=#ffffff;imageAspect=0;aspect=fixed;image=https://cdn0.iconfinder.com/data/icons/blockchain-classic/270/ChainLink-128.png;labelPosition=center;align=center;spacing=0;spacingTop=-4;opacity=60;strokeWidth=2;" vertex="1" parent="AnFdu9Ej4A1fKqk9EQdc-114">
                    <mxGeometry x="60" width="30" height="30" as="geometry"/>
                </mxCell>
                <mxCell id="AnFdu9Ej4A1fKqk9EQdc-118" value="25" style="shape=image;html=1;verticalAlign=top;verticalLabelPosition=bottom;labelBackgroundColor=#ffffff;imageAspect=0;aspect=fixed;image=https://cdn0.iconfinder.com/data/icons/blockchain-classic/270/ChainLink-128.png;labelPosition=center;align=center;spacingBottom=0;spacing=0;spacingTop=-4;opacity=60;strokeWidth=2;" vertex="1" parent="AnFdu9Ej4A1fKqk9EQdc-114">
                    <mxGeometry x="90" width="30" height="30" as="geometry"/>
                </mxCell>
                <mxCell id="AnFdu9Ej4A1fKqk9EQdc-119" style="edgeStyle=orthogonalEdgeStyle;curved=1;rounded=0;orthogonalLoop=1;jettySize=auto;html=1;exitX=0.5;exitY=1;exitDx=0;exitDy=0;entryX=0.5;entryY=0;entryDx=0;entryDy=0;opacity=60;strokeWidth=2;" edge="1" parent="o2Xksu0kAlDJFk_WlHK5-1" source="AnFdu9Ej4A1fKqk9EQdc-85" target="AnFdu9Ej4A1fKqk9EQdc-115">
                    <mxGeometry relative="1" as="geometry"/>
                </mxCell>
                <mxCell id="AnFdu9Ej4A1fKqk9EQdc-120" style="edgeStyle=orthogonalEdgeStyle;curved=1;rounded=0;orthogonalLoop=1;jettySize=auto;html=1;exitX=0.5;exitY=1;exitDx=0;exitDy=0;entryX=0.5;entryY=0;entryDx=0;entryDy=0;opacity=60;strokeWidth=2;" edge="1" parent="o2Xksu0kAlDJFk_WlHK5-1" source="AnFdu9Ej4A1fKqk9EQdc-86" target="AnFdu9Ej4A1fKqk9EQdc-116">
                    <mxGeometry relative="1" as="geometry"/>
                </mxCell>
                <mxCell id="AnFdu9Ej4A1fKqk9EQdc-121" style="edgeStyle=orthogonalEdgeStyle;curved=1;rounded=0;orthogonalLoop=1;jettySize=auto;html=1;exitX=0.5;exitY=1;exitDx=0;exitDy=0;entryX=0.5;entryY=0;entryDx=0;entryDy=0;opacity=60;strokeWidth=2;" edge="1" parent="o2Xksu0kAlDJFk_WlHK5-1" source="AnFdu9Ej4A1fKqk9EQdc-87" target="AnFdu9Ej4A1fKqk9EQdc-117">
                    <mxGeometry relative="1" as="geometry"/>
                </mxCell>
                <mxCell id="AnFdu9Ej4A1fKqk9EQdc-122" style="edgeStyle=orthogonalEdgeStyle;curved=1;rounded=0;orthogonalLoop=1;jettySize=auto;html=1;exitX=0.5;exitY=1;exitDx=0;exitDy=0;entryX=0.5;entryY=0;entryDx=0;entryDy=0;opacity=60;strokeWidth=2;" edge="1" parent="o2Xksu0kAlDJFk_WlHK5-1" source="AnFdu9Ej4A1fKqk9EQdc-88" target="AnFdu9Ej4A1fKqk9EQdc-118">
                    <mxGeometry relative="1" as="geometry"/>
                </mxCell>
                <mxCell id="AnFdu9Ej4A1fKqk9EQdc-123" value="" style="group;spacing=0;spacingTop=0;spacingBottom=-4;opacity=60;strokeWidth=2;" vertex="1" connectable="0" parent="o2Xksu0kAlDJFk_WlHK5-1">
                    <mxGeometry x="600" y="260" width="120" height="30" as="geometry"/>
                </mxCell>
                <mxCell id="AnFdu9Ej4A1fKqk9EQdc-124" value="81" style="shape=image;html=1;verticalAlign=top;verticalLabelPosition=bottom;labelBackgroundColor=#ffffff;imageAspect=0;aspect=fixed;image=https://cdn0.iconfinder.com/data/icons/blockchain-classic/270/ChainLink-128.png;labelPosition=center;align=center;labelBorderColor=none;imageBorder=none;spacing=0;spacingBottom=0;spacingTop=-4;opacity=60;strokeWidth=2;" vertex="1" parent="AnFdu9Ej4A1fKqk9EQdc-123">
                    <mxGeometry width="30" height="30" as="geometry"/>
                </mxCell>
                <mxCell id="AnFdu9Ej4A1fKqk9EQdc-125" value="87" style="shape=image;html=1;verticalAlign=top;verticalLabelPosition=bottom;labelBackgroundColor=#ffffff;imageAspect=0;aspect=fixed;image=https://cdn0.iconfinder.com/data/icons/blockchain-classic/270/ChainLink-128.png;labelPosition=center;align=center;spacingBottom=0;spacing=0;spacingTop=-4;opacity=60;strokeWidth=2;" vertex="1" parent="AnFdu9Ej4A1fKqk9EQdc-123">
                    <mxGeometry x="30" width="30" height="30" as="geometry"/>
                </mxCell>
                <mxCell id="AnFdu9Ej4A1fKqk9EQdc-126" value="93" style="shape=image;html=1;verticalAlign=top;verticalLabelPosition=bottom;labelBackgroundColor=#ffffff;imageAspect=0;aspect=fixed;image=https://cdn0.iconfinder.com/data/icons/blockchain-classic/270/ChainLink-128.png;labelPosition=center;align=center;spacing=0;spacingTop=-4;opacity=60;strokeWidth=2;" vertex="1" parent="AnFdu9Ej4A1fKqk9EQdc-123">
                    <mxGeometry x="60" width="30" height="30" as="geometry"/>
                </mxCell>
                <mxCell id="AnFdu9Ej4A1fKqk9EQdc-127" value="100" style="shape=image;html=1;verticalAlign=top;verticalLabelPosition=bottom;labelBackgroundColor=#ffffff;imageAspect=0;aspect=fixed;image=https://cdn0.iconfinder.com/data/icons/blockchain-classic/270/ChainLink-128.png;labelPosition=center;align=center;spacingBottom=0;spacing=0;spacingTop=-4;opacity=60;strokeWidth=2;" vertex="1" parent="AnFdu9Ej4A1fKqk9EQdc-123">
                    <mxGeometry x="90" width="30" height="30" as="geometry"/>
                </mxCell>
                <mxCell id="AnFdu9Ej4A1fKqk9EQdc-128" style="edgeStyle=orthogonalEdgeStyle;curved=1;rounded=0;orthogonalLoop=1;jettySize=auto;html=1;exitX=0.5;exitY=1;exitDx=0;exitDy=0;entryX=0.5;entryY=0;entryDx=0;entryDy=0;opacity=60;strokeWidth=2;" edge="1" parent="o2Xksu0kAlDJFk_WlHK5-1" target="AnFdu9Ej4A1fKqk9EQdc-124">
                    <mxGeometry relative="1" as="geometry">
                        <mxPoint x="615" y="250" as="sourcePoint"/>
                    </mxGeometry>
                </mxCell>
                <mxCell id="AnFdu9Ej4A1fKqk9EQdc-129" style="edgeStyle=orthogonalEdgeStyle;curved=1;rounded=0;orthogonalLoop=1;jettySize=auto;html=1;exitX=0.5;exitY=1;exitDx=0;exitDy=0;entryX=0.5;entryY=0;entryDx=0;entryDy=0;opacity=60;strokeWidth=2;" edge="1" parent="o2Xksu0kAlDJFk_WlHK5-1" target="AnFdu9Ej4A1fKqk9EQdc-125">
                    <mxGeometry relative="1" as="geometry">
                        <mxPoint x="645" y="250" as="sourcePoint"/>
                    </mxGeometry>
                </mxCell>
                <mxCell id="AnFdu9Ej4A1fKqk9EQdc-130" style="edgeStyle=orthogonalEdgeStyle;curved=1;rounded=0;orthogonalLoop=1;jettySize=auto;html=1;exitX=0.5;exitY=1;exitDx=0;exitDy=0;entryX=0.5;entryY=0;entryDx=0;entryDy=0;opacity=60;strokeWidth=2;" edge="1" parent="o2Xksu0kAlDJFk_WlHK5-1" target="AnFdu9Ej4A1fKqk9EQdc-126">
                    <mxGeometry relative="1" as="geometry">
                        <mxPoint x="675" y="250" as="sourcePoint"/>
                    </mxGeometry>
                </mxCell>
                <mxCell id="AnFdu9Ej4A1fKqk9EQdc-131" style="edgeStyle=orthogonalEdgeStyle;curved=1;rounded=0;orthogonalLoop=1;jettySize=auto;html=1;exitX=0.5;exitY=1;exitDx=0;exitDy=0;entryX=0.5;entryY=0;entryDx=0;entryDy=0;opacity=60;strokeWidth=2;" edge="1" parent="o2Xksu0kAlDJFk_WlHK5-1" target="AnFdu9Ej4A1fKqk9EQdc-127">
                    <mxGeometry relative="1" as="geometry">
                        <mxPoint x="705" y="250" as="sourcePoint"/>
                    </mxGeometry>
                </mxCell>
                <mxCell id="AnFdu9Ej4A1fKqk9EQdc-132" value="" style="group;spacing=0;spacingTop=0;spacingBottom=-4;opacity=60;strokeWidth=2;" vertex="1" connectable="0" parent="o2Xksu0kAlDJFk_WlHK5-1">
                    <mxGeometry x="460" y="260" width="120" height="30" as="geometry"/>
                </mxCell>
                <mxCell id="AnFdu9Ej4A1fKqk9EQdc-133" value="56" style="shape=image;html=1;verticalAlign=top;verticalLabelPosition=bottom;labelBackgroundColor=#ffffff;imageAspect=0;aspect=fixed;image=https://cdn0.iconfinder.com/data/icons/blockchain-classic/270/ChainLink-128.png;labelPosition=center;align=center;labelBorderColor=none;imageBorder=none;spacing=0;spacingBottom=0;spacingTop=-4;opacity=60;strokeWidth=2;" vertex="1" parent="AnFdu9Ej4A1fKqk9EQdc-132">
                    <mxGeometry width="30" height="30" as="geometry"/>
                </mxCell>
                <mxCell id="AnFdu9Ej4A1fKqk9EQdc-134" value="62" style="shape=image;html=1;verticalAlign=top;verticalLabelPosition=bottom;labelBackgroundColor=#ffffff;imageAspect=0;aspect=fixed;image=https://cdn0.iconfinder.com/data/icons/blockchain-classic/270/ChainLink-128.png;labelPosition=center;align=center;spacingBottom=0;spacing=0;spacingTop=-4;opacity=60;strokeWidth=2;" vertex="1" parent="AnFdu9Ej4A1fKqk9EQdc-132">
                    <mxGeometry x="30" width="30" height="30" as="geometry"/>
                </mxCell>
                <mxCell id="AnFdu9Ej4A1fKqk9EQdc-135" value="68" style="shape=image;html=1;verticalAlign=top;verticalLabelPosition=bottom;labelBackgroundColor=#ffffff;imageAspect=0;aspect=fixed;image=https://cdn0.iconfinder.com/data/icons/blockchain-classic/270/ChainLink-128.png;labelPosition=center;align=center;spacing=0;spacingTop=-4;opacity=60;strokeWidth=2;" vertex="1" parent="AnFdu9Ej4A1fKqk9EQdc-132">
                    <mxGeometry x="60" width="30" height="30" as="geometry"/>
                </mxCell>
                <mxCell id="AnFdu9Ej4A1fKqk9EQdc-136" value="75" style="shape=image;html=1;verticalAlign=top;verticalLabelPosition=bottom;labelBackgroundColor=#ffffff;imageAspect=0;aspect=fixed;image=https://cdn0.iconfinder.com/data/icons/blockchain-classic/270/ChainLink-128.png;labelPosition=center;align=center;spacingBottom=0;spacing=0;spacingTop=-4;opacity=60;strokeWidth=2;" vertex="1" parent="AnFdu9Ej4A1fKqk9EQdc-132">
                    <mxGeometry x="90" width="30" height="30" as="geometry"/>
                </mxCell>
                <mxCell id="AnFdu9Ej4A1fKqk9EQdc-137" style="edgeStyle=orthogonalEdgeStyle;curved=1;rounded=0;orthogonalLoop=1;jettySize=auto;html=1;exitX=0.5;exitY=1;exitDx=0;exitDy=0;entryX=0.5;entryY=0;entryDx=0;entryDy=0;opacity=60;strokeWidth=2;" edge="1" parent="o2Xksu0kAlDJFk_WlHK5-1" target="AnFdu9Ej4A1fKqk9EQdc-133">
                    <mxGeometry relative="1" as="geometry">
                        <mxPoint x="475" y="250" as="sourcePoint"/>
                    </mxGeometry>
                </mxCell>
                <mxCell id="AnFdu9Ej4A1fKqk9EQdc-138" style="edgeStyle=orthogonalEdgeStyle;curved=1;rounded=0;orthogonalLoop=1;jettySize=auto;html=1;exitX=0.5;exitY=1;exitDx=0;exitDy=0;entryX=0.5;entryY=0;entryDx=0;entryDy=0;opacity=60;strokeWidth=2;" edge="1" parent="o2Xksu0kAlDJFk_WlHK5-1" target="AnFdu9Ej4A1fKqk9EQdc-134">
                    <mxGeometry relative="1" as="geometry">
                        <mxPoint x="505" y="250" as="sourcePoint"/>
                    </mxGeometry>
                </mxCell>
                <mxCell id="AnFdu9Ej4A1fKqk9EQdc-139" style="edgeStyle=orthogonalEdgeStyle;curved=1;rounded=0;orthogonalLoop=1;jettySize=auto;html=1;exitX=0.5;exitY=1;exitDx=0;exitDy=0;entryX=0.5;entryY=0;entryDx=0;entryDy=0;opacity=60;strokeWidth=2;" edge="1" parent="o2Xksu0kAlDJFk_WlHK5-1" target="AnFdu9Ej4A1fKqk9EQdc-135">
                    <mxGeometry relative="1" as="geometry">
                        <mxPoint x="535" y="250" as="sourcePoint"/>
                    </mxGeometry>
                </mxCell>
                <mxCell id="AnFdu9Ej4A1fKqk9EQdc-140" style="edgeStyle=orthogonalEdgeStyle;curved=1;rounded=0;orthogonalLoop=1;jettySize=auto;html=1;exitX=0.5;exitY=1;exitDx=0;exitDy=0;entryX=0.5;entryY=0;entryDx=0;entryDy=0;opacity=60;strokeWidth=2;" edge="1" parent="o2Xksu0kAlDJFk_WlHK5-1" target="AnFdu9Ej4A1fKqk9EQdc-136">
                    <mxGeometry relative="1" as="geometry">
                        <mxPoint x="565" y="250" as="sourcePoint"/>
                    </mxGeometry>
                </mxCell>
                <mxCell id="AnFdu9Ej4A1fKqk9EQdc-141" style="edgeStyle=orthogonalEdgeStyle;curved=1;rounded=0;orthogonalLoop=1;jettySize=auto;html=1;exitX=0.25;exitY=1;exitDx=0;exitDy=0;entryX=0.25;entryY=0;entryDx=0;entryDy=0;strokeWidth=2;" edge="1" parent="o2Xksu0kAlDJFk_WlHK5-1" source="AnFdu9Ej4A1fKqk9EQdc-94" target="AnFdu9Ej4A1fKqk9EQdc-109">
                    <mxGeometry relative="1" as="geometry"/>
                </mxCell>
                <mxCell id="AnFdu9Ej4A1fKqk9EQdc-142" value="" style="shape=image;html=1;verticalAlign=top;verticalLabelPosition=bottom;labelBackgroundColor=#ffffff;imageAspect=0;aspect=fixed;image=https://cdn0.iconfinder.com/data/icons/zondicons/20/dots-horizontal-triple-128.png;rotation=-90;strokeWidth=2;" vertex="1" parent="o2Xksu0kAlDJFk_WlHK5-1">
                    <mxGeometry x="70" y="320" width="40" height="40" as="geometry"/>
                </mxCell>
                <mxCell id="AnFdu9Ej4A1fKqk9EQdc-143" value="" style="shape=image;html=1;verticalAlign=top;verticalLabelPosition=bottom;labelBackgroundColor=#ffffff;imageAspect=0;aspect=fixed;image=https://cdn0.iconfinder.com/data/icons/zondicons/20/dots-horizontal-triple-128.png;rotation=-90;strokeWidth=2;" vertex="1" parent="o2Xksu0kAlDJFk_WlHK5-1">
                    <mxGeometry x="700" y="320" width="40" height="40" as="geometry"/>
                </mxCell>
            </root>
        </mxGraphModel>
    </diagram>
</mxfile>